<svg xmlns="http://www.w3.org/2000/svg" width="499" height="68" viewBox="0 0 499 68"><defs><style>.cls-1{fill:#a58a57;}.cls-2{fill:#00345e;}</style></defs><title>Main Logo TSB ENG H</title><g id="Main_Logo_ENG_H" data-name="Main Logo ENG H"><polygon class="cls-1" points="104.6 53.8 65.02 14.35 64.34 13.68 63.67 14.36 24.53 53.8 27.21 53.8 64.36 16.38 101.89 53.8 104.6 53.8"/><polygon class="cls-1" points="17.28 53.8 64.5 6.62 111.81 53.8 115.13 53.8 64.47 3.32 14 53.8 17.28 53.8"/><polygon class="cls-1" points="7.07 60.82 0.11 67.76 129.02 67.72 122.22 60.82 7.07 60.82"/><polygon class="cls-2" points="135.89 60.81 128.92 67.75 498.97 67.71 492.18 60.81 135.89 60.81"/><path id="ТСБ" class="cls-2" d="M93.62,30.8c5.91-2,9.27-5,9.27-10.26,0-7.42-6.49-9-14.72-9-1,0-3.83.18-5.4.18-.93,0-4.46-.12-5.91-.18.38,3,.45,11.74.46,18.22a13.17,13.17,0,0,0-6.56-5.14L64.11,22c-4.4-1.71-8.25-4-8.26-9.91A8.54,8.54,0,0,1,58.5,5.54,9.35,9.35,0,0,1,65,3.28a10.39,10.39,0,0,1,9.45,5.56l.53.87S76.42,5.59,77,4.1l.11-.28-.24-.18A17.72,17.72,0,0,0,65.81.24,17.13,17.13,0,0,0,55.25,3.6a12.45,12.45,0,0,0-4.65,8.11c-2.86.15-6.6.3-10.48.3-5.24,0-12.34-.28-15.22-.46.06.69.18,1.62.18,2.08s-.12,1.26-.18,1.9a84.21,84.21,0,0,1,11.3-.47h1.1c.17,3.17.23,11.81.23,16.3,0,7.25-.12,16-.46,22.34.92-.06,2.53-.18,3.23-.18.46,0,2,.12,2.88.18-.35-6.34-.46-15.09-.46-22.34,0-4.49.06-13.13.23-16.3h1.1c3.23,0,5.07,0,6.37.13.31,5.66,3.48,9.9,9.09,12.13l6.37,2.59c5.25,2.14,8,5.66,8,10,0,6.66-4.16,10.83-10.75,10.86a13.32,13.32,0,0,1-9.79-4.46,21.17,21.17,0,0,1-2.67-3.62L49.48,49.3l.18.17a16,16,0,0,0,11.72,4.32h.07A18.66,18.66,0,0,0,74.3,49.08a15.75,15.75,0,0,0,2.86-3.59c-.07,2.95-.17,5.76-.3,8.21.81-.06,2.72-.18,3.48-.18,1.74,0,5.22.18,7.42.18,9.22,0,16.47-3.83,16.47-12.35C104.23,36.36,101.91,32.54,93.62,30.8ZM82.54,14.92c1.22-.06,3.54-.12,4.87-.12,5.28,0,9.57,2,9.57,6.9,0,5.33-4.93,8-11.37,8-1.39,0-2.43-.06-3.07-.12Zm4.93,35.53c-1.51,0-3.65-.06-4.93-.12V32.77h1.62c11.31,0,14.15,3.3,14.15,8.52C98.31,48,93.38,50.45,87.47,50.45Z"/><path class="cls-1" d="M479,24.25c4.2-4.28,9.45-9.22,13.11-12.57-.54,0-1.43.11-2,.11s-1.39-.08-2.05-.11c-2.81,3.2-9.41,10.37-12.68,12.84,0-4.13,0-10.72.3-12.84-.61,0-1.54.11-1.89.11s-1.5-.08-2.2-.11c.27,2.12.31,8.71.31,13.07,0,4.86-.07,10.72-.31,15,.62,0,1.7-.11,2.17-.11.3,0,1.31.08,1.92.11-.23-4.24-.3-10.1-.3-14.15,4,4.36,8.9,9.87,12,14.15.65-.07,1.92-.11,2.58-.11.85,0,1.7,0,2.51.11-3.55-3.89-10.18-11.49-13.5-15.46M462,11.79c-.16,0-.81,0-1.39-.11.27,2.12.3,8.71.3,13.07V33L440.82,11.79h-1.08c.27,2.12.31,8.6.31,13,0,4.86-.07,10.72-.31,15a9.41,9.41,0,0,1,1.39-.11,8.78,8.78,0,0,1,1.35.11c-.23-4.24-.31-10.1-.31-15v-6l14.54,15.2c1.7,1.77,4.24,4.66,5.56,6.21h1.08c-.24-4.24-.31-10.53-.31-15.39,0-4.36,0-10.95.31-13.07-.35,0-1.12.11-1.35.11m-41.08,15a35.26,35.26,0,0,1-3.89-.27l3.89-9c2.24,5.05,3,6.82,3.82,9a36.62,36.62,0,0,1-3.82.27m.47-15c-1.27,2.85-9.8,22.87-12.73,27.89.38,0,1.08-.08,1.62-.08s1,0,1.47.08c.69-2,2.81-7.91,4.09-10.49a29.27,29.27,0,0,1,4.78-.35,34.55,34.55,0,0,1,5.36.35c1,2.16,3.2,7.9,4.28,10.49.61,0,1.73-.08,2.24-.08s1.54,0,2.16.08c-2.86-5.44-10.92-24.42-12.31-27.89ZM393,37.55c-1,0-2.43,0-3.27-.07V25.79h1.07c7.52,0,9.42,2.2,9.42,5.67,0,4.44-3.28,6.09-7.22,6.09m-3.27-23.64c.81,0,2.35-.07,3.23-.07,3.51,0,6.37,1.31,6.37,4.58,0,3.55-3.28,5.33-7.56,5.33-.93,0-1.62,0-2-.08Zm7.36,10.57c3.94-1.35,6.17-3.32,6.17-6.83,0-4.93-4.32-6-9.79-6-.7,0-2.55.11-3.59.11-.62,0-3-.08-3.94-.11.28,2.12.32,8.71.32,13.07,0,4.86-.08,10.72-.32,15,.55,0,1.82-.11,2.32-.11,1.16,0,3.47.11,4.94.11,6.13,0,10.95-2.54,10.95-8.21,0-3.32-1.54-5.86-7.06-7M375.89,11.79c-.51,0-1.51-.08-2.2-.11.26,2.12.3,8.71.3,13.07,0,4.86-.07,10.72-.3,15,.61,0,1.69-.11,2.16-.11.3,0,1.31.08,1.93.11-.24-4.24-.32-10.1-.32-15,0-4.36,0-10.95.32-13.07-.62,0-1.55.11-1.89.11M352.17,38.36c-7.33,0-10.92-5.82-10.92-12.45,0-8.06,4.25-12.89,11.11-12.89,7.14,0,10.92,4.9,10.92,12.38,0,8-4.48,13-11.11,13m.12-27.15c-8.72,0-15.2,5.94-15.2,14.7,0,9,6.4,14.27,14.93,14.27,9,0,15.42-6.41,15.42-14.89,0-8.79-6.52-14.08-15.15-14.08m-34,12.85H317V14a30.21,30.21,0,0,1,3.16-.11c4.48,0,6.71,1.73,6.71,4.62,0,4.67-4.93,5.6-8.6,5.6m12.77-6c0-4.2-3.16-6.36-8.1-6.36-1.47,0-4.28.11-5.32.11s-3.28,0-4.4-.11c.27,2.12.31,8.71.31,13.07,0,4.86-.08,10.72-.31,15a20.43,20.43,0,0,1,2.12-.11,18.58,18.58,0,0,1,2,.11c-.27-4.24-.31-9-.31-13.61h1.39c3.13,3.7,7.75,9.6,10.49,13.61.77-.07,1.69-.11,2.54-.11s1.82,0,2.71.11c-2.71-3-4.21-4.85-11.38-14,5.51-.59,8.29-3.86,8.29-7.64M297.6,11.79c-3.5,0-8.25-.19-10.18-.31,0,.46.12,1.08.12,1.39s-.08.85-.12,1.27a58.08,58.08,0,0,1,7.56-.3h.74c.11,2.12.15,7.9.15,10.91,0,4.86-.08,10.72-.31,15,.62,0,1.7-.11,2.16-.11.31,0,1.31.08,1.93.11-.23-4.24-.31-10.1-.31-15,0-3,0-8.79.16-10.91h.73a58.08,58.08,0,0,1,7.56.3c0-.42-.12-1-.12-1.27s.08-.93.12-1.39c-1.93.12-6.64.31-10.19.31M278.75,24.33l-3.59-1.39c-2.62-1-4.39-2.28-4.39-5.25S272.89,13,275.59,13a5.53,5.53,0,0,1,5.13,3.13l.5-.08c.23-.77.69-2,1-2.89a9.71,9.71,0,0,0-6.21-2c-4.47,0-8.41,2.59-8.41,7.6a7.3,7.3,0,0,0,5,7.14l3.43,1.38c2.2.89,4.28,2.55,4.28,5.29a5.37,5.37,0,0,1-5.71,5.74c-2.39,0-4.47-1.19-6.32-3.66l-.5.08a15.52,15.52,0,0,1-.66,2.93,8.65,8.65,0,0,0,6.56,2.47c5.59,0,9.76-3.82,9.76-9.06a6.94,6.94,0,0,0-4.71-6.79m-21.17,0L254,22.94c-2.62-1-4.39-2.28-4.39-5.25S251.72,13,254.42,13a5.53,5.53,0,0,1,5.13,3.13l.5-.08c.23-.77.69-2,1-2.89a9.71,9.71,0,0,0-6.21-2c-4.47,0-8.41,2.59-8.41,7.6a7.3,7.3,0,0,0,5,7.14l3.43,1.38c2.2.89,4.28,2.55,4.28,5.29a5.37,5.37,0,0,1-5.71,5.74c-2.39,0-4.47-1.19-6.32-3.66l-.5.08a15.52,15.52,0,0,1-.66,2.93,8.65,8.65,0,0,0,6.56,2.47c5.59,0,9.75-3.82,9.75-9.06a6.93,6.93,0,0,0-4.7-6.79M238.26,11.79c-.15,0-.81,0-1.39-.11.28,2.12.31,8.71.31,13.07V33L217.09,11.79H216c.27,2.12.31,8.6.31,13,0,4.86-.08,10.72-.31,15a9.2,9.2,0,0,1,1.39-.11,8.88,8.88,0,0,1,1.35.11c-.23-4.24-.31-10.1-.31-15v-6L233,33.93c1.7,1.77,4.24,4.66,5.55,6.21h1.08c-.23-4.24-.3-10.53-.3-15.39,0-4.36,0-10.95.3-13.07-.34,0-1.11.11-1.35.11m-41.07,15a35.26,35.26,0,0,1-3.89-.27l3.89-9c2.24,5.05,3,6.82,3.82,9a36.62,36.62,0,0,1-3.82.27m.47-15c-1.28,2.85-9.8,22.87-12.73,27.89.39,0,1.08-.08,1.62-.08s1,0,1.46.08c.7-2,2.82-7.91,4.09-10.49a29.43,29.43,0,0,1,4.78-.35,34.59,34.59,0,0,1,5.37.35c1,2.16,3.2,7.9,4.28,10.49.61,0,1.73-.08,2.23-.08s1.55,0,2.16.08c-2.85-5.44-10.91-24.42-12.3-27.89ZM167.31,24.06H166V14a30.21,30.21,0,0,1,3.16-.11c4.47,0,6.71,1.73,6.71,4.62,0,4.67-4.94,5.6-8.6,5.6m12.76-6c0-4.2-3.16-6.36-8.1-6.36-1.46,0-4.28.11-5.32.11s-3.27,0-4.39-.11c.27,2.12.3,8.71.3,13.07,0,4.86-.07,10.72-.3,15a20.14,20.14,0,0,1,2.12-.11,18.73,18.73,0,0,1,2,.11c-.28-4.24-.31-9-.31-13.61h1.38c3.13,3.7,7.75,9.6,10.49,13.61.78-.07,1.7-.11,2.55-.11s1.81,0,2.7.11c-2.7-3-4.2-4.85-11.38-14,5.52-.59,8.29-3.86,8.29-7.64M146.6,11.79c-3.51,0-8.25-.19-10.18-.31,0,.46.11,1.08.11,1.39s-.07.85-.11,1.27a58,58,0,0,1,7.56-.3h.73c.12,2.12.15,7.9.15,10.91,0,4.86-.07,10.72-.31,15,.62,0,1.7-.11,2.17-.11.31,0,1.31.08,1.93.11-.24-4.24-.31-10.1-.31-15,0-3,0-8.79.15-10.91h.73a57.85,57.85,0,0,1,7.56.3c0-.42-.11-1-.11-1.27s.08-.93.11-1.39c-1.93.12-6.63.31-10.18.31"/><path class="cls-2" d="M136.59,55l-.17,0,.16.4.29,0a1.73,1.73,0,0,0,1.2-.65,2.31,2.31,0,0,0,.57-1.68c0-.29,0-.58,0-.91s-.05-.86-.05-1.28V49.39c0-.56,0-.94,0-1.18l0-.64-.78,0-.7,0,0,.65,0,1.17v4a5.43,5.43,0,0,1-.08.89c-.1.39-.28.61-.56.65m12.35-6.58a3.21,3.21,0,0,0-1,2.48,3.07,3.07,0,0,0,1,2.36,3.59,3.59,0,0,0,2.46.83,3.55,3.55,0,0,0,2.5-.92,3.18,3.18,0,0,0,1-2.47,3.58,3.58,0,0,0-.31-1.49,2.59,2.59,0,0,0-.71-.91,3.48,3.48,0,0,0-2.36-.78,3.58,3.58,0,0,0-2.54.9m.49,2.5a3.77,3.77,0,0,1,.41-1.88,1.86,1.86,0,0,1,2.55-.69,1.52,1.52,0,0,1,.57.61,3.6,3.6,0,0,1,.4,1.76,3.87,3.87,0,0,1-.44,1.86,1.72,1.72,0,0,1-1.56.93,1.69,1.69,0,0,1-.9-.24,2,2,0,0,1-.63-.6,3.13,3.13,0,0,1-.4-1.75m14.77,2.59,0,.47.76,0,.73,0,0-.4c0-.28,0-.59,0-1V50.75l0-1.61c0-.57,0-1,0-1.16l0-.4-.74,0-.75,0,0,.4c0,.28,0,.66,0,1.14v1.61l0,1.81Zm11.22.1,0,.37.42,0,.37,0,0-.38c0-.3,0-.75,0-1.34l0-1.36v-1l0-.36.47.51,1.08,1.17c.48.5.87.93,1.18,1.28s.6.68.82,1l.37.47.45,0,.4,0,0-.48V50.78l0-1.83,0-1v-.4l-.39,0-.39,0,0,.48,0,1,0,1.14,0,1,0,.81-.46-.47c-.32-.33-.67-.7-1-1.12l-1.06-1.16c-.47-.53-.8-.9-1-1.14l-.42-.56-.46,0-.46,0,0,.59,0,.91v3.15c0,.55,0,1-.05,1.34m14.76-5.66,0,.35.59,0,.73,0h.37v3.91l0,1.22,0,.61.74,0,.75,0,0-.61,0-1.22,0-1.79V48.2h.37l.72,0,.59,0,0-.35,0-.37-.72,0c-.63,0-1.16,0-1.63,0s-1,0-1.63,0l-.72,0ZM205.7,51h-2.31v1h2.31Zm9,1.51a5.33,5.33,0,0,1-.09.57c0,.13-.09.31-.18.57l.34.16a2.7,2.7,0,0,0,.59.17,3.85,3.85,0,0,0,.66.06,2.38,2.38,0,0,0,1.61-.53,2,2,0,0,0,.69-1.53,1.9,1.9,0,0,0-.09-.58,1.8,1.8,0,0,0-.25-.52,3.85,3.85,0,0,0-1.2-.82c-.27-.14-.52-.27-.72-.4a.9.9,0,0,1-.47-.78.72.72,0,0,1,.29-.62.93.93,0,0,1,.65-.21,1.1,1.1,0,0,1,.66.2,1.13,1.13,0,0,1,.39.56h.17c.06-.22.1-.39.12-.49l.17-.43-.23-.14a2.67,2.67,0,0,0-1.22-.28,2.26,2.26,0,0,0-1.44.47,1.62,1.62,0,0,0-.51.66,2.22,2.22,0,0,0-.15.82,2.35,2.35,0,0,0,.1.67,1.86,1.86,0,0,0,.89,1l.58.31c.22.11.43.23.62.35a1,1,0,0,1,.54.8,1,1,0,0,1-.34.72,1.22,1.22,0,0,1-.77.21,1.2,1.2,0,0,1-1.2-.95ZM227,47.91l0,.35.58,0,.74,0h.37v3.91l0,1.22,0,.61.74,0,.75,0,0-.61,0-1.22V48.2h.36l.73,0,.59,0,0-.35,0-.37-.72,0c-.63,0-1.16,0-1.63,0s-1,0-1.63,0l-.72,0Zm14.46.47a3.24,3.24,0,0,0-1,2.48,3,3,0,0,0,1,2.36,4,4,0,0,0,5-.09,3.21,3.21,0,0,0,1-2.47,3.57,3.57,0,0,0-.3-1.49,2.59,2.59,0,0,0-.71-.91,3.51,3.51,0,0,0-2.37-.78,3.61,3.61,0,0,0-2.54.9m.5,2.5a3.77,3.77,0,0,1,.41-1.88,1.85,1.85,0,0,1,2.54-.69,1.39,1.39,0,0,1,.57.61,3.6,3.6,0,0,1,.41,1.76,3.87,3.87,0,0,1-.44,1.86,1.73,1.73,0,0,1-1.56.93,1.69,1.69,0,0,1-.9-.24,2,2,0,0,1-.63-.6,3.13,3.13,0,0,1-.4-1.75m19.49-2h.08l.12-.58.13-.47-.35-.12a4.55,4.55,0,0,0-1.51-.25,3.85,3.85,0,0,0-2.59.86,3.17,3.17,0,0,0-1,2.52,3.75,3.75,0,0,0,.22,1.35,2.59,2.59,0,0,0,.61.88,2.93,2.93,0,0,0,1,.67,4.43,4.43,0,0,0,1.61.29,4.16,4.16,0,0,0,1.58-.29l.22-.11.09-.38.12-.44-.12,0-.27.21a2.21,2.21,0,0,1-1.41.48,2.1,2.1,0,0,1-1.15-.35,1.89,1.89,0,0,1-.75-1,3.78,3.78,0,0,1-.26-1.43,3.15,3.15,0,0,1,.49-1.81,1.87,1.87,0,0,1,1.61-.86,1.69,1.69,0,0,1,1.24.48,4.54,4.54,0,0,1,.31.36m10.27-1.29-.73,0,0,.5,0,.71,0,1.09v2.71l0,.8,0,.55.77,0,.71,0-.05-.56c0-.24,0-.51,0-.82V51.08l.4.61.56.87c.26.4.45.7.56.89l.28.49.91,0,.89,0-.38-.5-.65-.95-1-1.42-.54-.83.34-.4.87-1,.7-.75.53-.54-.62,0-.59,0-.35.52c-.18.27-.45.61-.8,1l-.59.73-.55.61v-.63l0-1v-.71l0-.51Zm26.67,1.29h.08l.13-.58.12-.47-.35-.12a4.55,4.55,0,0,0-1.51-.25,3.85,3.85,0,0,0-2.59.86,3.17,3.17,0,0,0-1,2.52,3.54,3.54,0,0,0,.22,1.35,2.59,2.59,0,0,0,.61.88,2.93,2.93,0,0,0,1,.67,4.47,4.47,0,0,0,1.61.29,4.16,4.16,0,0,0,1.58-.29l.22-.11.09-.38.12-.44-.12,0-.27.21a2.2,2.2,0,0,1-1.4.48,2.14,2.14,0,0,1-1.16-.35,1.89,1.89,0,0,1-.75-1,3.78,3.78,0,0,1-.26-1.43,3.15,3.15,0,0,1,.49-1.81,1.86,1.86,0,0,1,1.61-.86,1.7,1.7,0,0,1,1.24.48,4.54,4.54,0,0,1,.31.36m10.18-.52a3.21,3.21,0,0,0-1,2.48,3.07,3.07,0,0,0,1,2.36,3.59,3.59,0,0,0,2.46.83,3.55,3.55,0,0,0,2.5-.92,3.22,3.22,0,0,0,1-2.47,3.58,3.58,0,0,0-.31-1.49,2.59,2.59,0,0,0-.71-.91,3.48,3.48,0,0,0-2.36-.78,3.58,3.58,0,0,0-2.54.9m.49,2.5a3.77,3.77,0,0,1,.41-1.88,1.77,1.77,0,0,1,1.58-.94,1.8,1.8,0,0,1,1,.25,1.43,1.43,0,0,1,.56.61,3.5,3.5,0,0,1,.41,1.76,3.87,3.87,0,0,1-.44,1.86,1.73,1.73,0,0,1-1.56.93,1.69,1.69,0,0,1-.9-.24,2,2,0,0,1-.63-.6,3.13,3.13,0,0,1-.4-1.75m14.7,3,.44,0,0-.56c0-.42.06-1,.12-1.58l.14-1.28.09-.74.37.72.47,1,.58,1.2c.16.35.3.62.39.83l.18.43.18,0,.2,0,.29-.69c.16-.39.41-.93.76-1.61l.57-1.11.37-.78.07.76.15,1.27c0,.19.06.71.12,1.59l0,.57.81,0,.74,0-.15-.82c-.13-.71-.27-1.56-.39-2.55s-.21-1.67-.27-2.35l-.07-.64-.36,0-.36,0-.28.66c-.18.4-.43.95-.78,1.65l-.76,1.46-.33.62-.33-.64c-.23-.43-.48-.91-.72-1.45l-.64-1.35-.42-1-.35,0-.39,0-.09.84-.27,2.12-.16,1.12c-.08.46-.16,1-.28,1.69l-.11.59Zm16.37,0,.44,0,0-.56c0-.42.07-1,.13-1.58l.14-1.28.08-.74.37.72.47,1,.58,1.2c.17.35.3.62.39.83l.18.43.19,0,.19,0,.29-.69c.16-.39.41-.93.76-1.61l.57-1.11.37-.78.07.76.15,1.27c0,.19.06.71.12,1.59l0,.57.81,0,.74,0-.15-.82c-.13-.71-.26-1.56-.38-2.55s-.22-1.67-.28-2.35l-.07-.64-.35,0-.37,0-.27.66c-.19.4-.44.95-.79,1.65l-.75,1.46-.34.62-.33-.64c-.23-.43-.47-.91-.72-1.45l-.64-1.35-.42-1-.35,0-.39,0-.09.84-.27,2.12-.16,1.12c-.08.46-.16,1-.28,1.69l-.11.59Zm16.37-.39,0,.46.78-.06h1.12l1.05,0,.59,0v-.83l-.63,0c-.36,0-.69,0-1,0h-.5V51h.52c.38,0,.7,0,1,0l.55,0,0-.42,0-.42-.52,0c-.33,0-.66,0-1,0h-.54v-2h.49l1.08,0,.55,0v-.83l-.52,0c-.27,0-.72,0-1.34,0l-.9,0-.78-.05,0,.47,0,.8v3.83c0,.35,0,.64,0,.89m13.47-5.92-.71,0,0,.38c0,.24,0,.57,0,1v3.43c0,.5,0,.85,0,1.05l0,.52.73,0,.74,0,0-.51q0-.43,0-1V51l.23.37c.27.42.48.76.64,1.06l.59,1,.28.51.8,0,.9,0-.37-.49c-.41-.6-.87-1.32-1.36-2.16l-.28-.5a2.41,2.41,0,0,0,.82-.31,1.38,1.38,0,0,0,.54-.69,1.64,1.64,0,0,0,.11-.63A1.53,1.53,0,0,0,373,48a2,2,0,0,0-1.3-.37l-.82,0Zm.7,3V48.17l.33,0A1,1,0,0,1,372,49.22a1.58,1.58,0,0,1-.27.91,1,1,0,0,1-.82.45Zm17.2-1.68h.08l.12-.58.13-.47-.35-.12a4.55,4.55,0,0,0-1.51-.25,3.85,3.85,0,0,0-2.59.86,3.18,3.18,0,0,0-1,2.52,3.54,3.54,0,0,0,.23,1.35,2.56,2.56,0,0,0,.6.88,3,3,0,0,0,1,.67,4.51,4.51,0,0,0,1.61.29,4.18,4.18,0,0,0,1.59-.29l.22-.11.08-.38.13-.44-.13,0-.27.21a2.18,2.18,0,0,1-1.4.48,2.1,2.1,0,0,1-1.15-.35,2,2,0,0,1-.76-1,4,4,0,0,1-.25-1.43,3.15,3.15,0,0,1,.49-1.81,1.85,1.85,0,0,1,1.6-.86,1.67,1.67,0,0,1,1.24.48,4.39,4.39,0,0,1,.32.36m9.59,4.57,0,.47.76,0,.73,0,0-.4c0-.28,0-.59,0-1V50.75l0-1.61c0-.57,0-1,0-1.16l0-.4-.74,0-.75,0,0,.4c0,.28,0,.66,0,1.14v3.42Zm10.79-.2-.33.67.5,0,.47,0,.19-.64c.08-.27.17-.54.26-.79l.15-.39.47-.06h1.23l.49.06.13.4.29.8.18.62.77,0,.88,0-.33-.68c-.53-1.14-1.08-2.44-1.63-3.89l-.43-1.17-.22-.62-.41,0-.32,0-.22.62-.46,1.19c-.58,1.46-1.13,2.74-1.66,3.88m1.52-1.88.14-.36.45-1.13.22-.52.21.52.46,1.13.15.36-.3,0a3.39,3.39,0,0,1-.47,0l-.55,0ZM423,53.55l0,.44.68-.06h.83l1.41,0,.66.05,0-.36,0-.37-.48,0c-.22,0-.52,0-.92,0h-.77V48.89c0-.32,0-.61,0-.86l0-.45-.71,0-.77,0,0,.45c0,.23,0,.51,0,.84v3.68a9.66,9.66,0,0,1,0,1m21.36-.07-.05.46.4,0h1.78a4.93,4.93,0,0,0,.75-.06,2,2,0,0,0,.73-.31,1.61,1.61,0,0,0,.72-1.46,1.47,1.47,0,0,0-.56-1.22,1.77,1.77,0,0,0-.59-.32l-.32-.12.3-.08a1.73,1.73,0,0,0,.75-.51,1.39,1.39,0,0,0,.3-.87A1.29,1.29,0,0,0,448,47.9a2.18,2.18,0,0,0-1.23-.32l-.88,0h-1.27l-.32,0,.05.46,0,.68v4c0,.36,0,.62,0,.78m1.36-2.57.31,0a2.69,2.69,0,0,1,.53.08,1,1,0,0,1,.67.72,1,1,0,0,1,0,.36c0,.87-.4,1.3-1.17,1.3l-.35,0,0-.59v-1.8Zm0-.6V49.17l0-.53,0-.42.31,0c.71,0,1.06.33,1.07,1a1.05,1.05,0,0,1-.44.93,1.18,1.18,0,0,1-.63.2Zm12,3-.33.67.5,0,.47,0,.19-.64c.08-.27.17-.54.26-.79l.14-.39.48-.06h1.22l.49.06.14.4.28.8.19.62.77,0,.88,0-.33-.68c-.53-1.14-1.08-2.44-1.63-3.89l-.43-1.17-.22-.62-.41,0-.32,0-.22.62-.46,1.19c-.58,1.46-1.13,2.74-1.66,3.88m1.52-1.88.14-.36.45-1.13.22-.52.21.52.45,1.13.15.36-.29,0a3.39,3.39,0,0,1-.47,0l-.55,0Zm13.22,2.18v.37l.41,0,.37,0,0-.38c0-.3,0-.75,0-1.34l0-1.36v-1l0-.36.47.51,1.08,1.17c.48.5.88.93,1.18,1.28s.6.68.83,1l.36.47.45,0,.4,0,0-.48v-1l0-1.73L478,49l0-1v-.4l-.39,0-.38,0v.48l0,1,0,1.14,0,1,0,.81-.46-.47c-.32-.33-.67-.7-1.05-1.12l-1.06-1.16c-.47-.53-.8-.9-1-1.14l-.43-.56-.46,0-.45,0,0,.59.05.91v1.48l0,1.67c0,.55,0,1-.05,1.34m16-6-.73,0,0,.5,0,.71,0,1.09v2.71l0,.8,0,.55.77,0,.71,0,0-.56a6.71,6.71,0,0,1,0-.82V51.08l.4.61.56.87c.26.4.45.7.56.89l.28.49.91,0,.89,0-.38-.5-.65-.95-1-1.42-.53-.83.33-.4.88-1,.69-.75.53-.54-.62,0-.58,0-.36.52c-.18.27-.45.61-.8,1l-.59.73-.55.61v-.63l0-1v-.71l0-.51Z"/></g></svg>