<svg xmlns="http://www.w3.org/2000/svg" viewBox="0 0 489 291"><defs><style>.cls-1{fill:#a58a57;}.cls-2{fill:#00345e;}</style></defs><title>Main Logo TSB ENG</title><g id="Main_logo_ENG" data-name="Main logo ENG"><polygon class="cls-1" points="377.83 180.89 245.13 48.6 242.84 46.35 240.59 48.64 109.37 180.89 118.37 180.89 242.91 55.41 368.74 180.89 377.83 180.89"/><polygon class="cls-1" points="85.07 180.89 243.38 22.69 402.02 180.89 413.15 180.89 243.29 11.63 74.06 180.89 85.07 180.89"/><polygon class="cls-1" points="27.5 227.68 459.7 227.55 436.92 204.41 50.84 204.41 27.5 227.68"/><path class="cls-2" d="M284.81,39.23c1.37,10.68,1.57,43.92,1.57,65.89,0,24.49-.39,54-1.57,75.41,2.74-.2,9.14-.58,11.67-.58,5.85,0,17.51.58,24.89.58,30.92,0,55.22-12.83,55.22-41.4,0-16.72-7.77-29.54-35.59-35.37C360.84,97,372.11,87,372.11,69.35c0-24.87-21.76-30.12-49.38-30.12-3.5,0-12.82.58-18.08.58-3.11,0-15-.38-19.84-.58m19.07,71.14h5.44c37.91,0,47.45,11.07,47.45,28.57,0,22.35-16.54,30.71-36.38,30.71-5,0-12.23-.2-16.51-.39Zm0-59.86c4.08-.2,11.86-.4,16.33-.4,17.69,0,32.08,6.61,32.08,23.13,0,17.89-16.52,26.82-38.1,26.82-4.68,0-8.18-.19-10.31-.39Z"/><path class="cls-2" d="M170.36,105.63c0,24.33.38,53.66,1.55,74.9-3.1-.2-8.13-.58-9.68-.58-2.31,0-7.72.38-10.82.58,1.17-21.24,1.55-50.57,1.55-74.9,0-15-.2-44-.77-54.64h-3.68c-21.07,0-31.12.6-37.89,1.57.2-2.14.58-5,.58-6.37,0-1.56-.38-4.65-.58-7,9.67.59,33.45,1.56,51,1.56,17.8,0,34.72-1,44.39-1.56-.19,2.32-.19,11.2,0,13.34-6.75-1-10.16-1.57-31.23-1.57h-3.68c-.58,10.63-.77,39.59-.77,54.64"/><path class="cls-2" d="M193.65,166.35l-.62-.56,4.12-22.19a71.4,71.4,0,0,0,8.95,12.12c9.87,10.1,20.61,14.94,32.83,15,22.08-.1,36-14.09,36.05-36.42,0-14.51-9.37-26.32-27-33.48L226.66,92.1c-19.89-7.9-30.64-23.34-30.59-44,0-16.07,6.54-27.91,16.3-35.57S235,1.31,247.81,1.31c14.85,0,26.47,3.6,37.08,11.37l.81.61-.37.94c-2,5-6.94,18.83-6.94,18.83l-1.77-2.92c-7.11-12.25-17.85-18.63-31.7-18.66-8.79,0-16.24,2.65-21.66,7.57-5.8,5.27-8.88,12.83-8.89,22.11,0,20,12.95,27.51,27.72,33.24l22.29,8.67c18.31,6.92,28.94,22.33,28.9,41.81,0,16.17-6.32,30.21-17,40.16s-25.73,15.8-43.07,15.8h-.24c-12.19,0-25.69-2-39.28-14.49"/><path class="cls-2" d="M15.27,252.16c-4.79,0-11.26-.26-13.89-.42.05.63.15,1.48.15,1.89s-.1,1.16-.15,1.74a77.47,77.47,0,0,1,10.3-.43h1c.16,2.91.21,10.8.21,14.9,0,6.63-.1,14.63-.42,20.42.84-.05,2.31-.16,2.95-.16.42,0,1.78.11,2.64.16-.32-5.79-.43-13.79-.43-20.42,0-4.1.05-12,.21-14.9h1a77.82,77.82,0,0,1,10.33.43c-.06-.58-.16-1.37-.16-1.74s.1-1.26.16-1.89c-2.64.16-9.06.42-13.9.42m45.67,8.52c0-5.74-4.32-8.68-11-8.68-2,0-5.84.16-7.26.16-1.26,0-4.47,0-6-.16.37,2.89.42,11.89.42,17.84,0,6.63-.11,14.63-.42,20.42a24.39,24.39,0,0,1,2.9-.16,22.14,22.14,0,0,1,2.68.16c-.37-5.79-.42-12.26-.42-18.58h1.89c4.26,5.05,10.57,13.1,14.31,18.58,1.06-.11,2.32-.16,3.47-.16s2.48,0,3.69.16c-3.69-4.16-5.74-6.64-15.53-19.15,7.53-.79,11.32-5.27,11.32-10.43m-17.42,8.21H41.79V255.11a39.67,39.67,0,0,1,4.31-.17c6.1,0,9.16,2.37,9.16,6.32,0,6.37-6.74,7.63-11.74,7.63m41.42-16.73c-1.74,3.89-13.37,31.2-17.38,38,.53-.06,1.48-.11,2.21-.11s1.43,0,2,.11c1-2.74,3.84-10.81,5.57-14.32a40,40,0,0,1,6.53-.48,49.42,49.42,0,0,1,7.32.48c1.35,2.95,4.36,10.79,5.83,14.32.85-.06,2.37-.11,3.06-.11s2.1,0,3,.11c-3.89-7.43-14.9-33.32-16.8-38Zm-.64,20.46a49.17,49.17,0,0,1-5.32-.36L84.3,260c3.06,6.89,4.1,9.3,5.2,12.26a51.9,51.9,0,0,1-5.2.36m56-20.46a18.36,18.36,0,0,1-1.88-.16c.36,2.89.42,11.89.42,17.84V281.1l-27.42-28.94H110c.37,2.89.42,11.73.42,17.68,0,6.63-.1,14.63-.42,20.42a11,11,0,0,1,1.91-.16,10.45,10.45,0,0,1,1.83.16c-.31-5.79-.42-13.79-.42-20.42v-8.21l19.83,20.74c2.32,2.41,5.8,6.36,7.59,8.46h1.46c-.3-5.78-.4-14.36-.4-21,0-5.95,0-14.95.4-17.84l-1.84.16m26.36,17.1-4.9-1.9c-3.57-1.36-6-3.09-6-7.15s2.91-6.37,6.59-6.37a7.53,7.53,0,0,1,7,4.26l.69-.1c.3-1.06.94-2.79,1.41-3.95a13.22,13.22,0,0,0-8.47-2.68c-6.11,0-11.47,3.52-11.47,10.37,0,4.52,2.31,7.94,6.79,9.73l4.68,1.89c3,1.21,5.84,3.48,5.84,7.21,0,4.84-3.15,7.84-7.78,7.84-3.27,0-6.11-1.63-8.62-5l-.7.11a22,22,0,0,1-.89,4,11.82,11.82,0,0,0,8.94,3.37c7.64,0,13.31-5.22,13.31-12.37a9.5,9.5,0,0,0-6.42-9.26m28.89,0-4.9-1.9c-3.57-1.36-6-3.09-6-7.15s2.9-6.37,6.57-6.37a7.53,7.53,0,0,1,7,4.26l.68-.1c.31-1.06.95-2.79,1.43-3.95a13.24,13.24,0,0,0-8.47-2.68c-6.11,0-11.47,3.52-11.47,10.37,0,4.52,2.32,7.94,6.78,9.73l4.69,1.89c3,1.21,5.83,3.48,5.83,7.21,0,4.84-3.15,7.84-7.79,7.84-3.26,0-6.1-1.63-8.63-5l-.67.11a22,22,0,0,1-.9,4,11.83,11.83,0,0,0,8.95,3.37c7.63,0,13.32-5.22,13.32-12.37a9.49,9.49,0,0,0-6.43-9.26m25.74-17.1c-4.8,0-11.27-.26-13.91-.42.06.63.16,1.48.16,1.89s-.1,1.16-.16,1.74a77.74,77.74,0,0,1,10.32-.43h1c.16,2.91.2,10.8.2,14.9,0,6.63-.09,14.63-.41,20.42.85-.05,2.32-.16,2.94-.16.43,0,1.8.11,2.63.16-.3-5.79-.42-13.79-.42-20.42,0-4.1.05-12,.22-14.9h1a77.66,77.66,0,0,1,10.31.43c-.06-.58-.15-1.37-.15-1.74s.09-1.26.15-1.89c-2.64.16-9.06.42-13.88.42M267,260.68c0-5.74-4.3-8.68-11-8.68-2,0-5.85.16-7.27.16-1.27,0-4.47,0-6-.16.35,2.89.42,11.89.42,17.84,0,6.63-.1,14.63-.42,20.42a23.93,23.93,0,0,1,2.88-.16,22.06,22.06,0,0,1,2.69.16c-.37-5.79-.42-12.26-.42-18.58h1.89c4.27,5.05,10.57,13.1,14.31,18.58,1.06-.11,2.32-.16,3.48-.16s2.48,0,3.68.16c-3.68-4.16-5.73-6.64-15.51-19.15,7.51-.79,11.29-5.27,11.29-10.43m-17.4,8.21h-1.74V255.11a39.8,39.8,0,0,1,4.31-.17c6.12,0,9.15,2.37,9.15,6.32,0,6.37-6.73,7.63-11.72,7.63m46.35-17.52c-11.88,0-20.73,8.11-20.73,20.05,0,12.2,8.74,19.47,20.36,19.47,12.32,0,21-8.75,21-20.3,0-12-8.89-19.22-20.68-19.22m-.16,37c-10,0-14.88-7.94-14.88-17,0-11,5.78-17.58,15.15-17.58,9.73,0,14.9,6.68,14.9,16.89,0,10.95-6.11,17.68-15.17,17.68m32.37-36.25c-.7,0-2.07-.12-3-.16.36,2.89.42,11.89.42,17.84,0,6.63-.1,14.63-.42,20.42.84-.05,2.31-.16,2.94-.16.43,0,1.8.11,2.64.16-.32-5.79-.41-13.79-.41-20.42,0-5.95.05-14.95.41-17.84-.84,0-2.1.16-2.57.16m29,17.31c5.37-1.84,8.43-4.53,8.43-9.31,0-6.74-5.91-8.16-13.37-8.16-1,0-3.48.16-4.9.16-.84,0-4.06-.12-5.37-.16.37,2.89.42,11.89.42,17.84,0,6.63-.1,14.63-.42,20.42.75-.05,2.48-.16,3.17-.16,1.57,0,4.73.16,6.73.16,8.36,0,14.95-3.48,14.95-11.22,0-4.52-2.11-8-9.64-9.57m-10-14.42c1.1-.05,3.22-.11,4.4-.11,4.81,0,8.69,1.79,8.69,6.27,0,4.84-4.47,7.27-10.3,7.27-1.27,0-2.23-.06-2.79-.11Zm4.47,32.26c-1.39,0-3.32-.05-4.47-.11V271.26h1.46c10.26,0,12.85,3,12.85,7.74,0,6.05-4.48,8.31-9.84,8.31m38.67-35.15c-1.75,3.89-13.36,31.2-17.37,38,.53-.06,1.47-.11,2.22-.11s1.42,0,2,.11c1-2.74,3.86-10.81,5.59-14.32a39.93,39.93,0,0,1,6.52-.48,49.42,49.42,0,0,1,7.32.48c1.36,2.95,4.37,10.79,5.85,14.32.82-.06,2.35-.11,3.05-.11s2.11,0,2.95.11c-3.9-7.43-14.91-33.32-16.8-38Zm-.63,20.46a49,49,0,0,1-5.31-.36L389.57,260c3.05,6.89,4.1,9.3,5.21,12.26a52.08,52.08,0,0,1-5.21.36m56-20.46a18.36,18.36,0,0,1-1.88-.16c.36,2.89.42,11.89.42,17.84V281.1l-27.43-28.94h-1.48c.38,2.89.44,11.73.44,17.68,0,6.63-.1,14.63-.44,20.42l1.91-.16a10.48,10.48,0,0,1,1.84.16c-.33-5.79-.42-13.79-.42-20.42v-8.21l19.84,20.74c2.32,2.41,5.77,6.36,7.58,8.46h1.46c-.3-5.78-.41-14.36-.41-21,0-5.95.05-14.95.41-17.84l-1.84.16m23.16,17c5.73-5.85,12.89-12.57,17.89-17.15-.74,0-2,.16-2.74.16s-1.9-.12-2.79-.16c-3.84,4.37-12.84,14.15-17.31,17.52,0-5.63.05-14.63.41-17.52-.84,0-2.11.16-2.56.16-.69,0-2.06-.12-3-.16.36,2.89.42,11.89.42,17.84,0,6.63-.1,14.63-.42,20.42.84-.05,2.32-.16,3-.16.41,0,1.78.11,2.62.16-.31-5.79-.41-13.79-.41-19.31a250,250,0,0,1,16.41,19.31c.9-.11,2.64-.16,3.53-.16,1.15,0,2.31,0,3.41.16-4.83-5.32-13.88-15.69-18.4-21.11"/></g></svg>