<svg version="1.1" id="Слой_1" xmlns="http://www.w3.org/2000/svg" x="0" y="0" viewBox="0 0 151.7 89.6" xml:space="preserve"><path fill="#A08A57" d="M117.4 56L76.1 14.8l-.7-.7-.7.7L33.8 56h2.8l38.8-39.1L114.6 56h2.8z"/><path fill="#A08A57" d="M26.2 56L75.5 6.7 124.9 56h3.5L75.5 3.3 22.8 56h3.4zM8.3 70.6l134.6-.1-7.1-7.2H15.6l-7.3 7.3z"/><path fill="#0F355D" d="M50.7 32.5c0 7.6.1 16.7.5 23.3-1-.1-2.5-.2-3-.2-.7 0-2.4.1-3.4.2.4-6.6.5-15.8.5-23.3 0-4.7-.1-13.7-.2-17H44c-6.6 0-9.7.2-11.8.5.1-.7.2-1.6.2-2 0-.5-.1-1.4-.2-2.2 3 .2 10.4.5 15.9.5s10.8-.3 13.8-.5c-.1.7-.1 3.5 0 4.1-2.1-.3-3.2-.5-9.7-.5h-1.1c-.3 3.4-.4 12.5-.4 17.1zM96.4 34c11.5 0 16.5 2.2 16.5 8.9 0 6.2-4.2 9.6-11.3 9.6-1.7 0-3.6-.1-5.1-.1V34h-.1zm-5.9-22.1c.4 3.3.5 13.7.5 20.5 0 7.6-.1 16.8-.5 23.5 1-.1 2.4-.2 3.5-.2 2.6 0 6.7.2 7.8.2 9.8.1 17.2-4 17.2-12.9 0-11-13.3-12.2-19.5-12.2h-3.1V15.6c2.7-.2 7.6-.4 8.8-.4 1.8 0 7.6.4 11.1.8-.1-.7-.2-1.6-.2-2.1 0-.3.1-1.5.2-2.2-3.9.2-10.8.5-14.2.5-1.3.2-7.7-.2-11.6-.3z"/><path fill="#0F355D" d="M92.9 3.6C88.2.7 82.7 0 78.2 0 63.6 0 53.7 11 53.7 28.4c0 17 9.4 27.5 23.1 27.5 4.9 0 9.4-1 14.5-4.4l.6-4.7-.4-.8c-4.9 5.1-9.6 7-13.6 7-12.1 0-17.5-12.8-17.5-24.6 0-12.3 5-25.5 17.4-25.5 3.8 0 7.9 2.1 12.5 7h1l1.6-6.3zM8.1 79.2v-1.1c-.8 0-2.7.1-4.1.1-1.4 0-3.3-.1-4.1-.1v1.1c.6-.1 1.4-.2 3.1-.2h.3c0 .8.1 3.2.1 4.4 0 1.9 0 4.3-.1 6H5c-.1-1.7-.1-4-.1-6 0-1.2 0-3.5.1-4.4h.3c1.5 0 2.3.1 2.8.2zm7.8 1.8c0 1.6-1.3 2.5-3.4 2.5-.2 0-.5 0-.6-.1v-4.3h1.4c1.4-.1 2.6.4 2.6 1.9zm1.6 0c0-1.9-1.1-2.8-4-2.8h-3.2c.1.8.1 3.5.1 5.2 0 1.9 0 4.3-.1 6h1.6c-.1-.8-.1-1.7-.1-2.5v-2.7c.3 0 .9.1 1 .1 2.6 0 4.7-.8 4.7-3.3zm6.1 3.1c-.5.1-1.2.1-1.5.1-.5 0-1.2-.1-1.6-.1l1.6-3.6c.8 2 1.1 2.7 1.5 3.6zm3.1 5.2h.9c-1.1-2.2-4.4-9.8-4.9-11.2h-.4c-.5 1.1-3.9 9.2-5.1 11.2h1.2c.3-.8 1.1-3.2 1.6-4.2.6-.1 1.3-.1 1.9-.1.5 0 1.3 0 2.1.1.4.9 1.3 3.2 1.7 4.2.3.1.8 0 1 0zm12.3.1c-.1-1.7-.1-4-.1-6 0-1.7 0-4.4.1-5.2h-1.7c.1.8.1 3.5.1 4.7-1.3.1-2.4.1-3 .1-.7 0-2 0-3.6-.1 0-1.2 0-3.9.1-4.7h-1.7c.1.8.1 3.5.1 5.2 0 1.9 0 4.3-.1 6h1.7c-.1-1.7-.1-4.2-.1-5.5 1.6-.1 2.6-.1 3.5-.1.8 0 1.8 0 3.1.1 0 1.2 0 3.8-.1 5.5h.9c.2-.1.6 0 .8 0zM50.6 80l.4-1.3c-1.2-.6-2.5-.8-3.6-.8-3.6 0-6.1 2.3-6.1 5.9 0 3.5 2.3 5.7 5.7 5.7 1.2 0 2.3-.2 3.6-.9l.2-1-.1-.2c-1.2 1.1-2.4 1.3-3.4 1.3-3 0-4.3-2.5-4.3-5s1.3-5.2 4.3-5.2c.9 0 2 .3 3.1 1.3h.2v.2zm11 0l.4-1.3c-1.2-.6-2.5-.8-3.6-.8-3.6 0-6.1 2.3-6.1 5.9 0 3.5 2.3 5.7 5.7 5.7 1.2 0 2.3-.2 3.6-.9l.2-1-.1-.2c-1.2 1.1-2.4 1.3-3.4 1.3-3 0-4.3-2.5-4.3-5s1.3-5.2 4.3-5.2c.9 0 2 .3 3.1 1.3h.2v.2zm10.1-.8v-1.1c-.8 0-2.7.1-4.1.1-1.4 0-3.3-.1-4.1-.1v1.1c.5-.1 1.3-.1 3-.1h.3c0 .8.1 3.2.1 4.4 0 1.9 0 4.3-.1 6h1.7c-.1-1.7-.1-4-.1-6 0-1.2 0-3.5.1-4.4h.3c1.6-.1 2.4 0 2.9.1zm7.6 1.8c0 1.6-1.3 2.5-3.4 2.5-.2 0-.5 0-.6-.1v-4.3h1.4c1.4-.1 2.6.4 2.6 1.9zm1.6 0c0-1.9-1.1-2.8-4-2.8h-3.2c.1.8.1 3.5.1 5.2 0 1.9 0 4.3-.1 6h1.6c-.1-.8-.1-1.7-.1-2.5v-2.7c.3 0 .9.1 1 .1 2.5 0 4.7-.8 4.7-3.3zm11.9 2.7c0 3.2-1.8 5.2-4.4 5.2-2.9 0-4.4-2.3-4.4-5 0-3.2 1.7-5.2 4.4-5.2 2.9 0 4.4 2 4.4 5zm1.7-.1c0-3.5-2.6-5.6-6.1-5.6-3.5 0-6.1 2.4-6.1 5.9 0 3.6 2.6 5.7 6 5.7 3.6 0 6.2-2.6 6.2-6zm7.4-5.9c1.2 0 2.3-.3 3.3-.9l-.4-.7c-.8.5-1.9.8-2.9.8-1.1 0-2.1-.3-2.9-.8l-.4.7c1 .6 2.1.9 3.3.9zm5.2 11.7c-.1-1.7-.1-4-.1-6 0-1.7 0-4.4.1-5.2h-.7c-1.9 2.5-6 6.7-7.9 8.7v-3.5c0-1.7 0-4.4.1-5.2h-1.7c.1.8.1 3.5.1 5.2 0 1.9 0 4.3-.1 6h.6c1.9-2.2 5.6-6.3 8-8.5v2.5c0 1.9 0 4.3-.1 6h.9c.1-.1.5 0 .8 0zm8.5-3.3c0 1.6-1.1 2.4-2.9 2.4h-1.3v-4.7c3 0 4.2.6 4.2 2.3zm1.6 0c0-2.8-3.4-3.1-5-3.1h-.8v-3.9c.7-.1 1.9-.1 2.3-.1.5 0 1.9.1 2.8.2v-1.1c-1 .1-2.8.1-3.6.1-.4 0-2-.1-3-.1.1.8.1 3.5.1 5.2 0 1.9 0 4.3-.1 6h2.9c2.5.1 4.4-.9 4.4-3.2zm8-2c-.5.1-1.2.1-1.5.1-.5 0-1.2-.1-1.6-.1l1.6-3.6c.9 2 1.2 2.7 1.5 3.6zm3.1 5.2h.9c-1.1-2.2-4.4-9.8-4.9-11.2h-.4c-.5 1.1-3.9 9.2-5.1 11.2h1.2c.3-.8 1.1-3.2 1.6-4.2.6-.1 1.3-.1 1.9-.1.5 0 1.3 0 2.1.1.4.9 1.3 3.2 1.7 4.2.4.1.8 0 1 0zm12.3.1c-.1-1.7-.1-4-.1-6 0-1.7 0-4.4.1-5.2h-1.7c.1.8.1 3.5.1 4.7-1.3.1-2.4.1-3 .1-.7 0-2 0-3.6-.1 0-1.2 0-3.9.1-4.7h-1.7c.1.8.1 3.5.1 5.2 0 1.9 0 4.3-.1 6h1.7c-.1-1.7-.1-4.2-.1-5.5 1.6-.1 2.6-.1 3.5-.1.8 0 1.8 0 3.1.1 0 1.2 0 3.8-.1 5.5h.9c.2-.1.6 0 .8 0zm5.7-6.2c1.7-1.7 3.8-3.7 5.3-5H150c-1.1 1.3-3.8 4.2-5.1 5.1 0-1.6 0-4.3.1-5.1h-1.7c.1.8.1 3.5.1 5.2 0 1.9 0 4.3-.1 6h1.7c-.1-1.7-.1-4-.1-5.7 1.6 1.7 3.6 3.9 4.8 5.7h2c-1.4-1.6-4-4.6-5.4-6.2z"/></svg>