<svg xmlns="http://www.w3.org/2000/svg"><symbol id="pin" viewBox="0 0 10 14" fill="currentColor"><path d="M5.364 13.837a.5.5 0 01-.7 0C4.474 13.651.013 9.249.013 5.5.013 2.064 1.882.013 5.014.013c3.131 0 5 2.051 5 5.487 0 3.749-4.46 8.151-4.65 8.337zm-.35-12.826c-2.58 0-4.001 1.596-4.001 4.489 0 2.767 2.967 6.163 4.001 7.263 1.033-1.101 4-4.5 4-7.263 0-2.893-1.421-4.489-4-4.489zm0 6.779a2.496 2.496 0 01-2.5-2.494 2.5 2.5 0 015 0 2.497 2.497 0 01-2.5 2.494zm0-3.99c-.829 0-1.5.67-1.5 1.496s.671 1.497 1.5 1.497a1.5 1.5 0 001.5-1.497c0-.826-.672-1.496-1.5-1.496z"/></symbol><symbol id="compass" viewBox="0 0 14 14" fill="currentColor"><path d="M13.72.051a.504.504 0 00-.448 0l-13 6.496a.5.5 0 00.134.938l5.159.938.939 5.157a.5.5 0 00.939.133l6.5-12.991a.5.5 0 00-.223-.671zM7.219 11.926l-.732-4.022a.498.498 0 00-.4-.399l-4.026-.734 10.317-5.155-5.159 10.31z"/></symbol><symbol id="chevron" viewBox="0 0 7 4" fill="currentColor"><path d="M3.736 3.891L6.887.623a.377.377 0 000-.519.345.345 0 00-.5 0L3.485 3.112.584.104a.346.346 0 00-.501 0 .378.378 0 000 .52l3.152 3.267a.348.348 0 00.501 0z"/></symbol><symbol id="view" viewBox="0 0 23 14" fill="currentColor"><path d="M22.882 7.313c-.222.273-5.488 6.674-11.398 6.674-5.91 0-11.177-6.401-11.398-6.674a.516.516 0 010-.645C.307 6.395 5.574-.007 11.484-.007c6.887 0 11.245 6.439 11.426 6.713a.517.517 0 01-.028.607zM11.484.993C6.739.993 2.239 5.7 1.097 6.991c1.144 1.289 5.649 5.997 10.387 5.997 4.778 0 9.309-4.776 10.412-6.025-.955-1.269-4.868-5.97-10.412-5.97zm0 9.996c-2.116 0-3.837-1.793-3.837-3.999 0-2.205 1.721-3.998 3.837-3.998s3.837 1.793 3.837 3.998c0 2.206-1.721 3.999-3.837 3.999zm0-6.997c-1.587 0-2.878 1.345-2.878 2.999 0 1.653 1.291 2.998 2.878 2.998 1.587 0 2.878-1.345 2.878-2.998 0-1.654-1.291-2.999-2.878-2.999z"/></symbol><symbol id="search" viewBox="0 0 20 20" fill="currentColor"><path d="M2.524 2.509A8.501 8.501 0 018.585-.009c2.289 0 4.442.894 6.061 2.518a8.55 8.55 0 012.511 6.078 8.548 8.548 0 01-2.111 5.649l4.761 4.774a.589.589 0 01-.415 1.003.58.58 0 01-.413-.172l-4.761-4.774a8.493 8.493 0 01-5.633 2.116 8.504 8.504 0 01-6.061-2.517A8.555 8.555 0 01.013 8.587c0-2.296.891-4.455 2.511-6.078zm.828 11.326a7.394 7.394 0 0010.466 0c2.886-2.894 2.886-7.603 0-10.496a7.367 7.367 0 00-5.233-2.17 7.365 7.365 0 00-5.233 2.17c-2.886 2.893-2.886 7.602 0 10.496z"/></symbol><symbol id="close" viewBox="0 0 16 16" fill="currentColor"><path d="M16.008.935l-.943-.944L8 7.056.935-.009l-.944.944L7.056 8l-7.065 7.065.944.943L8 8.943l7.065 7.065.943-.943L8.944 8 16.008.935z"/></symbol><symbol id="arrowLeft" viewBox="0 0 75 19" fill="currentColor"><path d="M74.522 10.089H2.773l7.779 7.582-.855.833-8.821-8.6c-.09-.087-.248-.251-.388-.397L.48 9.499l.013-.013c.14-.152.296-.318.383-.402l4.382-4.273h.021L9.707.493l.855.834-7.779 7.582h71.731v-.381l.008 1.561z"/></symbol><symbol id="arrowRight" viewBox="0 0 75 19" fill="currentColor"><path d="M.478 10.089h71.749l-7.779 7.582.854.833 8.822-8.6c.09-.087.248-.251.387-.397l.008-.008-.012-.013c-.14-.152-.296-.318-.383-.402l-4.383-4.273h-.02L65.292.493l-.854.834 7.779 7.582H.486v-.381l-.008 1.561z"/></symbol><symbol id="arrowRightSmall" viewBox="0 0 9 9" fill="none"><path d="M0 4.5h8m0 0L5 1m3 3.5L5 8" stroke="currentColor"/></symbol><symbol id="arrowDownSmall" viewBox="0 0 9 9" fill="none"><path d="M4.5 0v8m0 0L8 5M4.5 8L1 5" stroke="currentColor"/></symbol><symbol id="downValue" viewBox="0 0 10 10" fill="none"><path d="M9 3v6m0 0H3m6 0L1 1" stroke="#CD5867" stroke-width="2"/></symbol><symbol id="upValue" viewBox="0 0 10 10" fill="none"><path d="M9 7V1m0 0H3m6 0L1 9" stroke="#67BE90" stroke-width="2"/></symbol><symbol id="appStore" viewBox="0 0 36 31" fill="currentColor"><path d="M15.093.013a2.42 2.42 0 00-1.366.32 2.361 2.361 0 00-.855 3.25l2.172 3.668-7.037 11.881H2.409c-1.325 0-2.4 1.064-2.4 2.374s1.075 2.374 2.4 2.374H20.9a3.91 3.91 0 00-.454-2.796l-.005-.005a5.852 5.852 0 00-1.858-1.947H13.57l9.21-15.551a2.361 2.361 0 00-.858-3.248 2.414 2.414 0 00-3.283.849l-.813 1.372-.813-1.372a2.404 2.404 0 00-1.92-1.169zm6.885 9.554l-.991 1.63a5.87 5.87 0 00-.129 5.865l7.555 12.755a2.398 2.398 0 002.072 1.173c.411 0 .829-.104 1.211-.325a2.358 2.358 0 00.855-3.248l-2.095-3.537h3.148c1.324 0 2.399-1.064 2.399-2.374s-1.075-2.374-2.399-2.374h-5.96l-5.666-9.565zM5.558 26.258a5.937 5.937 0 00-1.935.276l-.534.9a2.358 2.358 0 00.857 3.247 2.406 2.406 0 003.283-.848l1.291-2.179a4.017 4.017 0 00-2.955-1.396h-.007z"/></symbol><symbol id="googlePlay" viewBox="0 0 32 36" fill="currentColor"><path d="M1.681.009l17.09 16.826 4.685-4.646L2.742.327A2.275 2.275 0 001.681.009zM.251.792a1.917 1.917 0 00-.247.953v32.699c0 .263.056.498.148.709l17.485-17.217L.251.792zm24.636 12.203l-5.006 4.941 5.006 4.916 6.116-3.473c.869-.498.992-1.131.986-1.468-.009-.556-.364-1.076-.962-1.394-.521-.278-4.39-2.513-6.14-3.522zm-6.116 6.041L1.533 35.985c.287-.015.598-.077.888-.245l14.328-8.217 6.732-3.84-4.71-4.647z"/></symbol><symbol id="vk" viewBox="0 0 37 36" fill="currentColor"><path d="M.499 18C.499 8.058 8.558-.001 18.5-.001c9.941 0 18.001 8.059 18.001 18.001 0 9.941-8.06 18-18.001 18C8.558 36 .499 27.941.499 18zm18.943 5.907s.346-.038.524-.225c.162-.172.156-.495.156-.495s-.021-1.511.693-1.734c.705-.219 1.609 1.461 2.569 2.107.725.489 1.275.382 1.275.382l2.565-.035s1.341-.081.705-1.116c-.052-.085-.371-.766-1.906-2.166-1.609-1.465-1.393-1.228.544-3.762 1.179-1.543 1.651-2.485 1.503-2.888-.14-.385-1.008-.283-1.008-.283l-2.886.017s-.215-.028-.373.065c-.155.091-.256.304-.256.304s-.456 1.194-1.066 2.21c-1.285 2.142-1.799 2.256-2.009 2.123-.49-.311-.367-1.246-.367-1.911 0-2.077.321-2.943-.625-3.167-.314-.074-.545-.123-1.348-.131-1.03-.01-1.901.003-2.395.24-.329.158-.582.51-.428.53.191.025.623.114.852.421.296.395.286 1.282.286 1.282s.17 2.445-.398 2.748c-.388.208-.922-.217-2.068-2.161a18.04 18.04 0 01-1.031-2.096s-.085-.206-.238-.316c-.185-.134-.443-.175-.443-.175l-2.744.017s-.412.011-.563.187c-.134.156-.011.479-.011.479s2.148 4.933 4.581 7.419c2.23 2.279 4.762 2.13 4.762 2.13h1.148z"/></symbol><symbol id="fb" viewBox="0 0 37 36" fill="currentColor"><path d="M.749 18C.749 8.058 8.808-.001 18.75-.001c9.942 0 18.001 8.059 18.001 18.001 0 9.941-8.059 18-18.001 18C8.808 36 .749 27.941.749 18zm19.877 10.584V18.79h2.704l.358-3.375h-3.062l.005-1.689c0-.88.083-1.352 1.348-1.352h1.69V8.999h-2.704c-3.248 0-4.391 1.637-4.391 4.39v2.027H14.55v3.374h2.024v9.794h4.052z"/></symbol><symbol id="ig" viewBox="0 0 36 36" fill="currentColor"><path d="M18 36C8.058 36-.001 27.941-.001 18-.001 8.058 8.058-.001 18-.001c9.942 0 18.001 8.059 18.001 18.001 0 9.941-8.059 18-18.001 18zm9.542-21.959c-.048-1.022-.21-1.72-.446-2.33a4.711 4.711 0 00-1.108-1.701 4.692 4.692 0 00-1.7-1.107c-.612-.238-1.31-.399-2.332-.446-1.024-.047-1.35-.058-3.957-.058-2.605 0-2.933.011-3.957.058-1.022.047-1.72.208-2.33.446a4.704 4.704 0 00-1.701 1.107 4.711 4.711 0 00-1.108 1.701c-.238.61-.4 1.308-.446 2.33-.046 1.024-.058 1.351-.058 3.959 0 2.607.012 2.933.058 3.957.047 1.022.209 1.72.446 2.331a4.716 4.716 0 001.108 1.7 4.695 4.695 0 001.7 1.108c.611.237 1.309.399 2.33.446 1.024.047 1.351.058 3.959.058 2.607 0 2.933-.011 3.957-.058 1.022-.047 1.721-.209 2.332-.446a4.691 4.691 0 001.699-1.108 4.716 4.716 0 001.108-1.7c.236-.611.398-1.309.446-2.331.046-1.023.058-1.35.058-3.957 0-2.608-.012-2.935-.058-3.959zm-2.058 9.617a2.97 2.97 0 01-.718 1.103 2.955 2.955 0 01-1.103.717c-.338.133-.847.289-1.783.332-1.012.046-1.316.055-3.879.055-2.564 0-2.868-.009-3.88-.055-.936-.044-1.444-.2-1.782-.332a2.973 2.973 0 01-1.104-.718 2.964 2.964 0 01-.719-1.103c-.131-.338-.288-.846-.33-1.782-.047-1.012-.056-1.316-.056-3.88s.009-2.866.056-3.878c.042-.937.199-1.444.33-1.783.174-.448.382-.768.719-1.104a2.973 2.973 0 011.104-.718c.338-.133.846-.288 1.782-.331.886-.04 1.229-.052 3.019-.054v.002h.861c2.563 0 2.867.009 3.879.055.936.043 1.444.2 1.783.331a2.97 2.97 0 011.103.718c.336.336.544.656.718 1.104.132.338.288.846.331 1.782.046 1.012.056 1.316.056 3.878 0 2.563-.01 2.867-.056 3.879-.043.936-.199 1.444-.331 1.782zm-7.483-10.589a4.93 4.93 0 10-.001 9.86 4.93 4.93 0 00.001-9.86zm5.125-1.346a1.153 1.153 0 10-.001 2.305 1.153 1.153 0 00.001-2.305zM18.001 21.2a3.2 3.2 0 110-6.4 3.2 3.2 0 010 6.4z"/></symbol><symbol id="yt" viewBox="0 0 37 36" fill="currentColor"><path d="M18.25 36C8.308 36 .249 27.941.249 18 .249 8.058 8.308-.001 18.25-.001c9.941 0 18.001 8.059 18.001 18.001 0 9.941-8.06 18-18.001 18zm9.199-22.446a2.438 2.438 0 00-1.698-1.743c-1.497-.412-7.501-.412-7.501-.412s-6.005 0-7.502.412a2.437 2.437 0 00-1.697 1.743c-.402 1.538-.402 4.745-.402 4.745s0 3.208.402 4.746c.22.848.871 1.516 1.697 1.743 1.497.412 7.502.412 7.502.412s6.004 0 7.501-.412a2.438 2.438 0 001.698-1.743c.401-1.538.401-4.746.401-4.746s0-3.207-.401-4.745zM16.45 15.6l4.8 3-4.8 3v-6z"/></symbol><symbol id="tg" viewBox="0 0 37 36" fill="currentColor"><path d="M36.501 18c0 9.941-8.059 18-18.001 18C8.558 36 .499 27.941.499 18 .499 8.058 8.558-.001 18.5-.001c9.942 0 18.001 8.059 18.001 18.001zm-23.948-1.649c-1.803.787-3.656 1.596-5.35 2.529-.885.648.291 1.106 1.394 1.536.176.068.349.135.512.203l.414.13c1.227.391 2.595.827 3.786.171 1.956-1.124 3.803-2.423 5.648-3.721.604-.426 1.208-.851 1.816-1.27l.096-.062c.518-.336 1.683-1.09 1.252-.05-1.019 1.114-2.11 2.1-3.207 3.092-.74.669-1.482 1.339-2.207 2.053-.631.513-1.286 1.544-.58 2.262 1.628 1.14 3.281 2.251 4.933 3.362.537.362 1.075.723 1.611 1.086.91.726 2.331.139 2.53-.996l.268-1.565c.493-2.884.987-5.768 1.422-8.662.059-.453.127-.907.194-1.361.163-1.101.326-2.202.377-3.309-.132-1.103-1.47-.861-2.215-.612-3.829 1.457-7.62 3.021-11.396 4.614-.428.19-.861.379-1.298.57z"/></symbol><symbol id="info" viewBox="0 0 18 18" fill="currentColor"><path d="M9.002 0a9 9 0 10-.005 18 9 9 0 00.005-18zm0 3.476a1.123 1.123 0 11-.001 2.247 1.123 1.123 0 01.001-2.247zm1.687 10.528H7.315a.559.559 0 110-1.118h.562V7.97h-.562a.56.56 0 010-1.119h2.25a.56.56 0 01.562.56v5.474h.562a.56.56 0 11-.002 1.118h.002z"/></symbol><symbol id="download" viewBox="0 0 11 12" fill="none"><path d="M5.5.002v8m0 0l3.5-3m-3.5 3l-3.5-3m-1.5 4v1.5h10v-1.5" stroke="currentColor"/></symbol><symbol id="rubleRound" viewBox="0 0 20 20" fill="none"><path d="M16.788 4.09A9 9 0 0119 10h-1.039a7.961 7.961 0 10-1.766 5H14v-1h4v4h-1v-2.343a9 9 0 11-.212-11.567zm-7.989 6.976h2.156c.952 0 1.722-.22 2.31-.658.588-.438.882-1.148.882-2.128 0-.98-.308-1.708-.924-2.184-.616-.485-1.386-.728-2.31-.728H7.287V9.96h-.924v1.106h.924v.952h-.924v.896h.924V15H8.8v-2.086h3.01v-.896H8.8v-.952zm0-1.106V6.6h1.946c.579 0 1.036.14 1.372.42.346.28.518.7.518 1.26s-.172.98-.518 1.26c-.336.28-.793.42-1.372.42H8.8z" fill="currentColor"/></symbol><symbol id="applePay" viewBox="0 0 59 24" fill="currentColor"><path d="M11.195 3.21c-.676.8-1.758 1.431-2.84 1.341C8.22 3.47 8.749 2.32 9.369 1.61 10.045.787 11.23.201 12.187.156c.112 1.127-.327 2.232-.992 3.054zm.98 1.555c-1.566-.09-2.907.89-3.651.89-.755 0-1.893-.845-3.133-.822-1.611.023-3.11.935-3.933 2.39-1.69 2.907-.44 7.212 1.195 9.578.8 1.172 1.758 2.457 3.02 2.412 1.194-.045 1.668-.778 3.11-.778 1.454 0 1.87.778 3.133.755 1.307-.022 2.13-1.172 2.93-2.344.913-1.33 1.285-2.626 1.307-2.693-.022-.023-2.524-.98-2.547-3.866-.022-2.411 1.973-3.56 2.063-3.628-1.127-1.668-2.885-1.849-3.494-1.894zm9.05-3.268v17.57h2.727V13.06h3.775c3.448 0 5.871-2.367 5.871-5.793s-2.378-5.77-5.78-5.77h-6.594zm2.727 2.3h3.144c2.366 0 3.719 1.261 3.719 3.481 0 2.22-1.353 3.494-3.73 3.494h-3.133V3.796zM38.579 19.2c1.713 0 3.302-.867 4.023-2.242h.057v2.107h2.524V10.32c0-2.535-2.028-4.17-5.15-4.17-2.896 0-5.037 1.657-5.116 3.934h2.456c.203-1.082 1.206-1.792 2.581-1.792 1.668 0 2.603.777 2.603 2.209v.969l-3.403.203c-3.167.191-4.88 1.487-4.88 3.74 0 2.277 1.77 3.787 4.305 3.787zm.733-2.084c-1.454 0-2.378-.7-2.378-1.77 0-1.104.89-1.746 2.592-1.848l3.031-.191v.991c0 1.646-1.397 2.818-3.245 2.818zm9.24 6.727c2.66 0 3.911-1.014 5.004-4.09l4.79-13.433h-2.773L52.362 16.7h-.057L49.093 6.32h-2.85l4.62 12.791-.248.778c-.417 1.318-1.093 1.826-2.299 1.826a8.37 8.37 0 01-.8-.046v2.108c.158.045.834.067 1.037.067z"/></symbol><symbol id="googlePay" viewBox="0 0 59 23" fill="currentColor"><path d="M27.938 11.237v6.715h-2.13V1.368h5.65a5.109 5.109 0 013.659 1.436 4.615 4.615 0 011.528 3.5 4.593 4.593 0 01-1.529 3.52c-.987.942-2.207 1.412-3.658 1.412h-3.52zm0-7.827V9.2h3.573a2.816 2.816 0 002.108-.858 2.826 2.826 0 000-4.053 2.778 2.778 0 00-2.108-.88h-3.573v.001zm13.616 2.825c1.575 0 2.818.42 3.729 1.262.911.842 1.366 1.996 1.365 3.462v6.993h-2.037v-1.574h-.093c-.882 1.296-2.055 1.945-3.52 1.945-1.25 0-2.295-.37-3.137-1.112a3.548 3.548 0 01-1.262-2.778c0-1.175.443-2.108 1.33-2.802.888-.693 2.073-1.04 3.555-1.043 1.265 0 2.307.232 3.125.695v-.487a2.427 2.427 0 00-.88-1.885 3.017 3.017 0 00-2.056-.777c-1.19 0-2.132.502-2.825 1.506l-1.876-1.182c1.032-1.482 2.56-2.223 4.582-2.223zm-2.756 8.244a1.702 1.702 0 00.706 1.39c.471.37 1.056.566 1.656.555a3.397 3.397 0 002.396-.995c.706-.664 1.059-1.444 1.059-2.338-.665-.53-1.59-.794-2.78-.794-.864 0-1.586.208-2.164.626-.584.423-.873.938-.873 1.556zm19.548-7.873l-7.114 16.348h-2.2l2.64-5.72-4.677-10.628h2.316l3.38 8.15h.047l3.288-8.15h2.32zM19.33 9.79c0-.65-.055-1.298-.165-1.937h-8.984v3.669h5.146a4.41 4.41 0 01-1.903 2.895V16.8h3.071c1.798-1.658 2.834-4.11 2.834-7.01z"/><path d="M10.18 19.1c2.571 0 4.736-.844 6.315-2.3l-3.072-2.381c-.854.58-1.955.91-3.243.91-2.485 0-4.594-1.675-5.348-3.933H1.668v2.455a9.527 9.527 0 008.512 5.25z"/><path d="M4.833 11.396a5.708 5.708 0 010-3.646V5.295H1.669a9.527 9.527 0 000 8.556l3.164-2.455z"/><path d="M10.18 3.817a5.172 5.172 0 013.655 1.429l2.72-2.72A9.154 9.154 0 0010.18.047a9.527 9.527 0 00-8.512 5.249L4.832 7.75c.754-2.257 2.863-3.932 5.348-3.932z"/></symbol><symbol id="samsungPay" viewBox="0 0 63 29" fill="currentColor"><path d="M3.785 15.423H.527v9.513H2.31v-2.725h1.47a3.395 3.395 0 00.014-6.788h-.01zm-.12 5.146H2.298v-3.503h1.355a1.754 1.754 0 110 3.505m10.255-2.346a3.188 3.188 0 00-2.448-1.069c-1.93 0-3.78 1.447-3.78 3.974 0 2.49 1.915 3.958 3.76 3.958a3.166 3.166 0 002.476-1.148v.99h1.76v-7.616h-1.768v.91zm-2.189 5.25A2.36 2.36 0 1114 21.1c0 1.316-.978 2.375-2.28 2.375zm8.651-1.029l-2.123-5.134h-1.876l3.127 7.246-1.603 3.897h1.785l4.548-11.142h-1.85l-2.007 5.133zM52.044 7.767h-.05L49.95.783h-3.303V9.59h2.188l-.122-7.225h.047l2.197 7.225h3.169V.783h-2.203l.12 6.984zM12.01 1.608l.05-.001 1.187 8.074h2.39L13.996.783H10.04L8.39 9.681h2.404l1.217-8.073zM23.478.783L22.38 7.587h-.05L21.234.783h-3.63l-.196 8.898h2.229l.055-8h.048l1.486 8h2.258l1.486-7.997.05-.002.055 8h2.227l-.196-8.9h-3.628zM3.742 10.03c1.609 0 2.933-.55 3.145-2.035a4.331 4.331 0 00-.01-1.459c-.376-1.864-3.76-2.42-4.004-3.461a1.172 1.172 0 01-.01-.467c.063-.287.257-.594.813-.594a.758.758 0 01.828.806v.552h2.22V2.74c0-1.937-1.741-2.24-3-2.24C2.141.5.848 1.022.613 2.48c-.072.396-.066.804.02 1.198.386 1.82 3.548 2.344 4.005 3.496.07.212.075.44.018.655-.071.297-.273.593-.867.593-.556 0-.892-.32-.892-.805v-.859H.5v.687c0 1.979 1.562 2.584 3.234 2.584m28.084-6.932a1.108 1.108 0 01-.01-.461c.063-.283.253-.594.803-.594a.75.75 0 01.82.792v.544h2.199v-.61C35.63.848 33.906.55 32.66.55c-1.566 0-2.846.516-3.08 1.953a3.01 3.01 0 00.022 1.188c.38 1.803 3.511 2.321 3.958 3.463.069.211.074.437.016.651-.071.293-.27.594-.857.594-.552 0-.886-.319-.886-.792v-.863h-2.357v.675c-.002 1.98 1.545 2.573 3.2 2.573 1.595 0 2.905-.542 3.115-2.015a4.295 4.295 0 00-.01-1.442c-.372-1.847-3.715-2.395-3.958-3.428M44.165.781h-2.252v6.583a1.84 1.84 0 01-.022.34.887.887 0 01-1.706 0 1.702 1.702 0 01-.022-.34V.78h-2.258v6.38c0 .164.012.499.02.594.156 1.66 1.469 2.198 3.105 2.198 1.637 0 2.95-.538 3.103-2.198.01-.087.026-.422.024-.594l.008-6.38zm15.449 3.902V5.98h.91v1.292c.004.113-.003.227-.02.339-.041.237-.265.645-.91.645s-.867-.408-.91-.64a2.335 2.335 0 01-.02-.338V3.205a2.12 2.12 0 01.035-.422c.05-.22.24-.645.887-.645.681 0 .85.45.89.645.018.112.027.226.029.339v.499h2.244v-.297a5.796 5.796 0 00-.022-.594C62.563 1.062 61.181.531 59.604.531c-1.577 0-2.925.554-3.123 2.207a6.2 6.2 0 00-.038.594v3.736c0 .199.01.397.03.594.148 1.62 1.552 2.199 3.131 2.199 1.58 0 2.98-.578 3.129-2.199.026-.297.03-.42.032-.594V4.693l-3.151-.01z"/></symbol><symbol id="garminPay" viewBox="0 0 102 26" fill="currentColor"><path d="M72 25.743H0V.26h72v25.483zM.752 25h70.505V1H.752v24z"/><path d="M23.983 9.408a.7.7 0 00-.56-.348h-.438a.675.675 0 00-.556.35l-3.448 7.204c-.095.19 0 .328.222.328h.8a.537.537 0 00.541-.318l.313-.628c.05-.106.201-.169.414-.169h3.71c.214 0 .352.042.415.168.042.082.234.426.325.613a.573.573 0 00.558.34h1.168c.213 0 .306-.163.234-.313l-3.698-7.227zm-2.18 5.298a.234.234 0 01-.233-.353l1.357-2.91c.091-.194.233-.192.325 0l1.336 2.917a.234.234 0 01-.234.353l-2.55-.007zm28.824-5.251v7.148a.357.357 0 00.39.331h.935a.359.359 0 00.39-.35v-7.13a.359.359 0 00-.353-.387h-.978a.37.37 0 00-.384.388zM34.838 13.94a.265.265 0 01.15-.43 3.929 3.929 0 001.203-.593 1.934 1.934 0 00.586-1.517 2.39 2.39 0 00-.233-1.088 1.855 1.855 0 00-.645-.72 2.974 2.974 0 00-1.007-.406 6.877 6.877 0 00-.918-.11c-.213 0-.563-.016-.776-.016h-3.905a.389.389 0 00-.388.395v7.136a.356.356 0 00.388.35h.934a.361.361 0 00.39-.35v-2.84h1.754a.838.838 0 01.598.308l1.825 2.57a.638.638 0 00.544.315h1.21a.194.194 0 00.173-.306l-1.883-2.698zm-.738-1.448a3.37 3.37 0 01-.51.065c-.212 0-.562.016-.775.016H31a.39.39 0 01-.388-.388v-1.448A.39.39 0 0131 10.35h1.815c.213 0 .563 0 .776.017.171.008.341.03.51.065.202.04.396.12.57.234a.87.87 0 01.298.352 1.127 1.127 0 010 .888.872.872 0 01-.299.353 1.603 1.603 0 01-.57.234zM62.198 9.06a.357.357 0 00-.386.346v4.569c0 .215-.121.264-.27.11L56.97 9.338a.905.905 0 00-.66-.278h-.859c-.27 0-.39.145-.39.29v7.307a.32.32 0 00.353.285h.862a.32.32 0 00.362-.314v-4.814c0-.213.121-.262.269-.107l4.77 4.959a.86.86 0 00.663.276h.647a.39.39 0 00.39-.388v-7.1a.39.39 0 00-.39-.387l-.79-.007zm-18.653 4.455c-.103.186-.274.186-.377 0l-2.235-4.107a.616.616 0 00-.563-.348h-1.212a.39.39 0 00-.388.395v7.127a.348.348 0 00.388.36h.754a.34.34 0 00.367-.341c0-.099 0-5.189.011-5.189.012 0 2.792 5.186 2.792 5.186a.25.25 0 00.45 0s2.804-5.174 2.816-5.174c.011 0 0 5.025 0 5.174a.348.348 0 00.378.341h.87a.35.35 0 00.387-.388V9.455a.387.387 0 00-.388-.388h-1.168a.628.628 0 00-.58.336l-2.302 4.112zm-34.478-.521c0 3.847 3.939 4.043 4.726 4.043 2.614 0 3.717-.7 3.764-.735a.701.701 0 00.362-.629v-2.656a.444.444 0 00-.444-.444h-3.27a.413.413 0 00-.407.444v.273a.418.418 0 00.406.447h1.9a.334.334 0 01.331.331v1.238c-.376.155-2.084.652-3.455.325-1.992-.467-2.147-2.119-2.147-2.61 0-.413.124-2.482 2.57-2.69a5.738 5.738 0 013.294.637.433.433 0 00.605-.212l.233-.5a.427.427 0 00-.182-.589 7.998 7.998 0 00-3.558-.761c-4.592 0-4.725 3.67-4.725 4.088m71.487 1.24h-1.89v5.09h-1.78v-12.7h3.681c2.058 0 2.974 1.104 2.974 2.936v1.763c0 1.794-.916 2.92-2.974 2.92l-.011-.009zm1.18-4.721c0-.839-.307-1.317-1.145-1.317h-1.909v4.492h1.909c.838 0 1.144-.496 1.144-1.316V9.514zm7.8 9.811l-.685-3.095h-2.745l-.668 3.107h-1.754l2.88-12.7h1.906l2.88 12.7-1.815-.012zm-2.059-9.87l-1.049 5.208h2.103l-1.054-5.207zm8.375 4.75v5.12h-1.794v-5.11l-3.07-7.59h1.946l2.08 5.853 2.076-5.854h1.813l-3.051 7.58zm4.205-7.457v.701h-.164v-.7h-.234v-.139h.645v.138h-.247zm1.084.701v-.673l-.061.234-.14.441h-.148l-.135-.441-.061-.234v.675h-.147v-.83h.234l.14.467.054.22.06-.22.133-.467h.234v.831l-.163-.002z"/></symbol></svg>