<svg width="17" height="17" viewBox="0 0 17 17" fill="none" xmlns="http://www.w3.org/2000/svg">
<circle cx="8.12439" cy="8.12439" r="7.62439" stroke="#00345E"/>
<path d="M7.51058 11.8696V6.675H8.72724V11.8696H7.51058ZM8.1242 5.76515C7.90556 5.76515 7.7257 5.70167 7.58464 5.57471C7.44358 5.44776 7.37305 5.28201 7.37305 5.07747C7.37305 4.87293 7.44358 4.70718 7.58464 4.58023C7.7257 4.44622 7.90556 4.37921 8.1242 4.37921C8.34285 4.37921 8.5227 4.44622 8.66377 4.58023C8.80483 4.70718 8.87536 4.87293 8.87536 5.07747C8.87536 5.28201 8.80483 5.44776 8.66377 5.57471C8.5227 5.70167 8.34285 5.76515 8.1242 5.76515Z" fill="#00345E"/>
</svg>
