<svg width="44" height="57" viewBox="0 0 44 57" fill="none" xmlns="http://www.w3.org/2000/svg">
<path d="M34.1117 32.2941L21.3914 45.0343L21.3913 45.0344C20.3407 46.0849 18.9684 46.5572 17.6279 46.5572C16.2906 46.5572 14.9172 46.087 13.8645 45.0344L10.0273 41.1971C8.96628 40.1362 8.52443 38.776 8.52443 37.4537C8.52443 36.1263 8.97827 34.7393 10.0273 33.6903L20.2587 23.4589C20.2589 23.4587 20.259 23.4586 20.2592 23.4584C20.3319 23.3842 20.4185 23.3249 20.5141 23.2841C20.6098 23.2432 20.7128 23.2215 20.8169 23.2203C20.9211 23.2192 21.0244 23.2386 21.1211 23.2773C21.2178 23.3161 21.3059 23.3736 21.3803 23.4464C21.4548 23.5193 21.5141 23.6061 21.5551 23.7019L21.4171 23.7608L21.5551 23.7019C21.596 23.7977 21.6176 23.9006 21.6187 24.0047C21.6199 24.1089 21.6005 24.2122 21.5616 24.3089C21.5228 24.4056 21.4653 24.4936 21.3925 24.5681L21.3914 24.5692L11.1588 34.8018C10.4366 35.5239 10.1035 36.4859 10.1035 37.4537C10.1035 38.4263 10.4201 39.3471 11.1588 40.0857L11.0527 40.1917L11.1588 40.0857L14.996 43.9229L14.8899 44.0289L14.996 43.9229C15.7299 44.6569 16.6435 44.9781 17.6279 44.9781C18.6147 44.9781 19.5274 44.6554 20.2599 43.9229L33.0506 31.1322L33.0581 31.1247L33.0666 31.1183C33.0871 31.1029 33.1083 31.0885 33.1302 31.0752L34.1117 32.2941ZM34.1117 32.2941L34.1592 32.2624L34.3114 32.1609L34.2752 32.1246C35.3854 31.1097 35.6849 29.7168 35.6849 28.5002C35.6849 27.5 35.4536 26.4614 34.9493 25.5543C34.9424 25.5395 34.935 25.5249 34.9272 25.5106L34.9277 25.5103L34.9208 25.4998C34.2257 24.4442 33.2449 23.406 32.1173 22.6973L32.1163 22.6967C31.441 22.2796 30.5798 21.9549 29.1396 21.9549C27.4986 21.9549 26.396 23.0679 25.4439 24.0289C25.4212 24.0518 25.3985 24.0747 25.376 24.0975C25.3759 24.0976 25.3758 24.0976 25.3757 24.0977L13.8645 35.6089L13.8641 35.6094C13.4177 36.0597 13.0115 36.665 13.0012 37.4317C12.9923 38.0931 13.1741 38.8431 13.744 39.4179L34.1117 32.2941ZM43.1373 12.5873L43.1356 12.5856L31.6239 1.07397L31.6239 1.07395L31.6222 1.07226C31.4724 0.927282 31.2649 0.845837 31.0565 0.850164H1.63954C1.10947 0.850164 0.85 1.31337 0.85 1.6397V55.3607C0.850041 55.7784 1.22185 56.1502 1.63951 56.1503H42.5698C42.9875 56.1502 43.3593 55.7784 43.3594 55.3607V13.1529C43.3637 12.9445 43.2822 12.7371 43.1373 12.5873ZM2.42907 2.42924H30.2687V13.1513C30.2687 13.569 30.6405 13.9408 31.0582 13.9409H41.7803V54.5712H2.42907V2.42924ZM31.8477 12.3618V3.54071L40.6688 12.3618H31.8477Z" fill="#00345E" stroke="#00345E" stroke-width="0.3"/>
</svg>
