<svg width="48" height="56" viewBox="0 0 48 56" fill="none" xmlns="http://www.w3.org/2000/svg">
<path d="M23.9044 55.0238C19.1765 55.0238 14.5549 53.6167 10.6238 50.9805C6.69276 48.3444 3.62888 44.5974 1.81962 40.2136C0.0103571 35.8298 -0.463028 31.0059 0.459326 26.3521C1.38168 21.6982 3.65835 17.4234 7.00143 14.0682C10.3445 10.7129 14.6039 8.42796 19.2408 7.50226C23.8778 6.57655 28.6842 7.05165 33.0521 8.8675C37.4201 10.6833 41.1534 13.7584 43.7801 17.7037C46.4067 21.649 47.8087 26.2875 47.8087 31.0325C47.8019 37.3933 45.2812 43.4916 40.7998 47.9894C36.3183 52.4871 30.2421 55.017 23.9044 55.0238ZM23.9044 8.76506C19.5154 8.76506 15.225 10.0713 11.5757 12.5185C7.92635 14.9658 5.08206 18.4442 3.40247 22.5138C1.72288 26.5834 1.28342 31.0615 2.13967 35.3818C2.99592 39.7021 5.10941 43.6706 8.21289 46.7854C11.3164 49.9001 15.2704 52.0213 19.5751 52.8807C23.8797 53.74 28.3416 53.299 32.3965 51.6133C36.4514 49.9276 39.9172 47.0729 42.3556 43.4104C44.7939 39.7478 46.0954 35.4418 46.0954 31.0368C46.0898 25.1317 43.75 19.4701 39.5896 15.2946C35.4291 11.1191 29.788 8.77076 23.9044 8.76506Z" fill="#00345E"/>
<path d="M16.0848 21.7904C15.9507 21.7903 15.8185 21.7586 15.6988 21.6979C15.5791 21.6373 15.4753 21.5492 15.3958 21.4409C15.3162 21.3326 15.263 21.207 15.2406 21.0744C15.2182 20.9417 15.2271 20.8056 15.2667 20.677L16.3418 17.1563L12.8339 16.0773C12.7214 16.0488 12.6158 15.9975 12.5237 15.9268C12.4315 15.856 12.3546 15.7672 12.2977 15.6657C12.2407 15.5642 12.205 15.4522 12.1925 15.3364C12.18 15.2206 12.1911 15.1035 12.2251 14.9921C12.259 14.8808 12.3152 14.7775 12.3902 14.6886C12.4651 14.5997 12.5573 14.527 12.6611 14.4749C12.7649 14.4228 12.8781 14.3924 12.994 14.3856C13.1098 14.3788 13.2258 14.3957 13.335 14.4352L17.661 15.7678C17.7688 15.8007 17.869 15.8547 17.956 15.9265C18.043 15.9984 18.115 16.0867 18.1679 16.1866C18.2209 16.2864 18.2536 16.3957 18.2644 16.5083C18.2752 16.6208 18.2637 16.7344 18.2306 16.8425L16.9029 21.1842C16.8489 21.3597 16.7403 21.5132 16.5931 21.6223C16.4459 21.7314 16.2678 21.7903 16.0848 21.7904Z" fill="#00345E"/>
<path d="M23.9036 47.7161C20.1109 47.7039 16.4361 46.392 13.4876 43.9977C10.5391 41.6034 8.4938 38.2703 7.69031 34.5502C6.88682 30.8301 7.37335 26.9461 9.06933 23.5413C10.7653 20.1366 13.569 17.4153 17.0163 15.828C17.223 15.7334 17.4588 15.7251 17.6716 15.8049C17.8845 15.8847 18.057 16.0461 18.1513 16.2536C18.2456 16.4611 18.2539 16.6977 18.1744 16.9113C18.0949 17.1249 17.934 17.2981 17.7273 17.3927C14.6233 18.8092 12.0961 21.2496 10.5661 24.3079C9.03602 27.3662 8.59538 30.8581 9.31744 34.2027C10.0395 37.5473 11.8807 40.5429 14.5348 42.6913C17.189 44.8397 20.496 46.0114 23.9057 46.0114C27.3155 46.0114 30.6225 44.8397 33.2767 42.6913C35.9308 40.5429 37.772 37.5473 38.4941 34.2027C39.2161 30.8581 38.7755 27.3662 37.2454 24.3079C35.7154 21.2496 33.1882 18.8092 30.0842 17.3927C29.9818 17.3459 29.8897 17.2793 29.813 17.1967C29.7362 17.114 29.6765 17.0171 29.6371 16.9113C29.5977 16.8055 29.5795 16.693 29.5835 16.5801C29.5874 16.4673 29.6135 16.3563 29.6602 16.2536C29.7069 16.1508 29.7733 16.0583 29.8556 15.9813C29.9379 15.9043 30.0345 15.8444 30.1399 15.8049C30.2453 15.7653 30.3574 15.747 30.4698 15.751C30.5823 15.755 30.6928 15.7812 30.7952 15.828C34.2428 17.4155 37.0467 20.1371 38.7426 23.5423C40.4385 26.9475 40.9247 30.8319 40.1207 34.5523C39.3167 38.2726 37.2706 41.6058 34.3214 43.9997C31.3722 46.3937 27.6967 47.7048 23.9036 47.7161Z" fill="#00345E"/>
<path d="M23.9046 34.622C23.1972 34.622 22.5057 34.4115 21.9176 34.0171C21.3295 33.6227 20.8711 33.0621 20.6004 32.4062C20.3297 31.7503 20.2588 31.0286 20.3968 30.3323C20.5348 29.636 20.8755 28.9964 21.3756 28.4944C21.8758 27.9924 22.5131 27.6506 23.2068 27.5121C23.9006 27.3736 24.6197 27.4447 25.2732 27.7163C25.9267 27.988 26.4853 28.4481 26.8783 29.0384C27.2713 29.6287 27.481 30.3226 27.481 31.0326C27.4799 31.9842 27.1027 32.8965 26.4322 33.5694C25.7618 34.2423 24.8528 34.6209 23.9046 34.622ZM23.9046 29.1669C23.5361 29.1669 23.1758 29.2766 22.8694 29.4821C22.563 29.6875 22.3242 29.9796 22.1832 30.3213C22.0422 30.663 22.0053 31.0389 22.0772 31.4017C22.1491 31.7644 22.3265 32.0976 22.5871 32.3591C22.8477 32.6206 23.1797 32.7987 23.5411 32.8709C23.9025 32.943 24.2771 32.906 24.6176 32.7645C24.958 32.6229 25.249 32.3833 25.4537 32.0758C25.6585 31.7682 25.7677 31.4067 25.7677 31.0369C25.7677 30.5409 25.5714 30.0653 25.222 29.7146C24.8726 29.3639 24.3987 29.1669 23.9046 29.1669Z" fill="#00345E"/>
<path d="M23.9035 29.167C23.6763 29.167 23.4584 29.0764 23.2978 28.9152C23.1371 28.7539 23.0469 28.5352 23.0469 28.3072V15.1918C23.0469 14.9638 23.1371 14.7451 23.2978 14.5838C23.4584 14.4226 23.6763 14.332 23.9035 14.332C24.1307 14.332 24.3486 14.4226 24.5092 14.5838C24.6699 14.7451 24.7601 14.9638 24.7601 15.1918V28.3072C24.7601 28.5352 24.6699 28.7539 24.5092 28.9152C24.3486 29.0764 24.1307 29.167 23.9035 29.167Z" fill="#00345E"/>
<path d="M23.9035 36.3716C23.6763 36.3716 23.4584 36.2811 23.2978 36.1198C23.1371 35.9586 23.0469 35.7399 23.0469 35.5119V33.9257C23.0469 33.6976 23.1371 33.479 23.2978 33.3177C23.4584 33.1565 23.6763 33.0659 23.9035 33.0659C24.1307 33.0659 24.3486 33.1565 24.5092 33.3177C24.6699 33.479 24.7601 33.6976 24.7601 33.9257V35.5119C24.7601 35.7399 24.6699 35.9586 24.5092 36.1198C24.3486 36.2811 24.1307 36.3716 23.9035 36.3716Z" fill="#00345E"/>
<path d="M30.3979 5.42501H17.4113C17.1841 5.42501 16.9662 5.33443 16.8056 5.17319C16.6449 5.01196 16.5547 4.79328 16.5547 4.56526V0.859748C16.5547 0.631729 16.6449 0.413048 16.8056 0.251814C16.9662 0.0905803 17.1841 0 17.4113 0L30.3979 0C30.6251 0 30.843 0.0905803 31.0036 0.251814C31.1643 0.413048 31.2545 0.631729 31.2545 0.859748V4.56526C31.2545 4.79328 31.1643 5.01196 31.0036 5.17319C30.843 5.33443 30.6251 5.42501 30.3979 5.42501ZM18.268 3.70551H29.5412V1.7195H18.268V3.70551Z" fill="#00345E"/>
<path d="M38.515 14.0053C38.3525 14.0057 38.1932 13.9597 38.0558 13.8727C37.9184 13.7857 37.8084 13.6612 37.7388 13.5138C37.6692 13.3664 37.6428 13.2022 37.6627 13.0404C37.6826 12.8785 37.7479 12.7256 37.8511 12.5996L42.0443 7.46694C42.189 7.29192 42.3968 7.18152 42.6223 7.1599C42.8478 7.13829 43.0727 7.20721 43.2477 7.35159C43.4227 7.49598 43.5336 7.70406 43.5561 7.93031C43.5786 8.15656 43.5109 8.38255 43.3678 8.55882L39.1789 13.6915C39.0983 13.7899 38.997 13.8691 38.8821 13.9234C38.7673 13.9776 38.6419 14.0056 38.515 14.0053Z" fill="#00345E"/>
<path d="M45.2392 10.9575C45.0411 10.9581 44.8488 10.8897 44.6953 10.764L39.5812 6.55556C39.4937 6.48405 39.4212 6.3959 39.3678 6.29619C39.3143 6.19647 39.2811 6.08715 39.2699 5.97449C39.2587 5.86183 39.2697 5.74806 39.3024 5.63971C39.3352 5.53136 39.3889 5.43056 39.4605 5.3431C39.5321 5.25564 39.6203 5.18324 39.7199 5.13006C39.8194 5.07687 39.9285 5.04396 40.0408 5.03319C40.1531 5.02243 40.2664 5.03403 40.3742 5.06733C40.482 5.10064 40.5823 5.15498 40.6691 5.22725L45.7832 9.43572C45.9204 9.54801 46.0196 9.70022 46.0671 9.8714C46.1146 10.0426 46.108 10.2243 46.0484 10.3916C45.9888 10.5589 45.8789 10.7036 45.734 10.8057C45.5891 10.9078 45.4163 10.9623 45.2392 10.9618V10.9575Z" fill="#00345E"/>
</svg>
