<svg width="42" height="56" viewBox="0 0 42 56" fill="none" xmlns="http://www.w3.org/2000/svg">
<path d="M40.9059 39.2433H11.1379C10.9107 39.2433 10.6928 39.1527 10.5322 38.9915C10.3715 38.8302 10.2812 38.6115 10.2812 38.3835V17.5604C10.2812 17.3324 10.3715 17.1137 10.5322 16.9525C10.6928 16.7913 10.9107 16.7007 11.1379 16.7007H40.9059C41.1331 16.7007 41.351 16.7913 41.5116 16.9525C41.6723 17.1137 41.7625 17.3324 41.7625 17.5604V38.3835C41.7625 38.6115 41.6723 38.8302 41.5116 38.9915C41.351 39.1527 41.1331 39.2433 40.9059 39.2433ZM11.9945 37.5238H40.0492V18.4202H11.9945V37.5238Z" fill="#00345E"/>
<path d="M24.8424 55.0239H4.28316C3.1472 55.0239 2.05776 54.571 1.25451 53.7648C0.451261 52.9586 0 51.8652 0 50.7251V4.29874C0 3.15864 0.451261 2.06524 1.25451 1.25907C2.05776 0.452902 3.1472 0 4.28316 0L24.8424 0C25.9783 0 27.0678 0.452902 27.871 1.25907C28.6743 2.06524 29.1255 3.15864 29.1255 4.29874V14.7576C29.1255 14.9856 29.0353 15.2043 28.8746 15.3655C28.714 15.5267 28.4961 15.6173 28.2689 15.6173C28.0417 15.6173 27.8238 15.5267 27.6632 15.3655C27.5025 15.2043 27.4123 14.9856 27.4123 14.7576V4.29874C27.4123 3.61468 27.1415 2.95864 26.6595 2.47494C26.1776 1.99124 25.5239 1.7195 24.8424 1.7195H4.28316C3.60158 1.7195 2.94792 1.99124 2.46597 2.47494C1.98402 2.95864 1.71327 3.61468 1.71327 4.29874V50.7251C1.71327 51.4092 1.98402 52.0652 2.46597 52.5489C2.94792 53.0326 3.60158 53.3044 4.28316 53.3044H24.8424C25.5239 53.3044 26.1776 53.0326 26.6595 52.5489C27.1415 52.0652 27.4123 51.4092 27.4123 50.7251V41.2679C27.4123 41.0399 27.5025 40.8212 27.6632 40.66C27.8238 40.4987 28.0417 40.4082 28.2689 40.4082C28.4961 40.4082 28.714 40.4987 28.8746 40.66C29.0353 40.8212 29.1255 41.0399 29.1255 41.2679V50.7251C29.1255 51.8652 28.6743 52.9586 27.871 53.7648C27.0678 54.571 25.9783 55.0239 24.8424 55.0239Z" fill="#00345E"/>
<path d="M28.912 6.87805H0.214844V8.59755H28.912V6.87805Z" fill="#00345E"/>
<path d="M28.9104 46.4264H1.03125V48.1459H28.9104V46.4264Z" fill="#00345E"/>
<path d="M17.3466 5.15846H11.7785C11.5513 5.15846 11.3334 5.06788 11.1728 4.90665C11.0121 4.74541 10.9219 4.52673 10.9219 4.29871C10.9219 4.07069 11.0121 3.85201 11.1728 3.69078C11.3334 3.52955 11.5513 3.43896 11.7785 3.43896H17.3466C17.5738 3.43896 17.7917 3.52955 17.9524 3.69078C18.113 3.85201 18.2033 4.07069 18.2033 4.29871C18.2033 4.52673 18.113 4.74541 17.9524 4.90665C17.7917 5.06788 17.5738 5.15846 17.3466 5.15846Z" fill="#00345E"/>
<path d="M14.5637 49.8654C14.3942 49.8654 14.2286 49.9158 14.0877 50.0102C13.9469 50.1047 13.8371 50.239 13.7722 50.3961C13.7074 50.5532 13.6904 50.7261 13.7235 50.8928C13.7565 51.0596 13.8381 51.2128 13.9579 51.333C14.0777 51.4533 14.2304 51.5352 14.3965 51.5683C14.5627 51.6015 14.735 51.5845 14.8915 51.5194C15.048 51.4543 15.1818 51.3441 15.2759 51.2028C15.3701 51.0614 15.4203 50.8951 15.4203 50.7251C15.4203 50.4971 15.33 50.2784 15.1694 50.1172C15.0087 49.9559 14.7909 49.8654 14.5637 49.8654Z" fill="#00345E"/>
<path d="M26.015 32.7006C25.8404 32.7002 25.67 32.6462 25.5268 32.5458L10.6385 22.1945C10.4516 22.0645 10.3239 21.8653 10.2833 21.6408C10.2427 21.4163 10.2927 21.1848 10.4222 20.9973C10.5517 20.8097 10.7501 20.6815 10.9738 20.6408C11.1975 20.6 11.4282 20.6502 11.6151 20.7802L26.015 30.7962L40.415 20.7802C40.6019 20.6502 40.8326 20.6 41.0563 20.6408C41.28 20.6815 41.4784 20.8097 41.6079 20.9973C41.7374 21.1848 41.7874 21.4163 41.7468 21.6408C41.7062 21.8653 41.5785 22.0645 41.3916 22.1945L26.5033 32.5501C26.3596 32.6489 26.1893 32.7014 26.015 32.7006Z" fill="#00345E"/>
<path d="M40.9048 39.2433C40.7302 39.2428 40.5598 39.1888 40.4166 39.0885L28.3038 30.62C28.2115 30.5553 28.1329 30.4731 28.0723 30.378C28.0117 30.2828 27.9704 30.1766 27.9507 30.0655C27.931 29.9543 27.9334 29.8403 27.9576 29.73C27.9818 29.6198 28.0274 29.5154 28.0918 29.4228C28.1562 29.3302 28.2381 29.2513 28.3329 29.1905C28.4277 29.1297 28.5335 29.0882 28.6443 29.0684C28.755 29.0487 28.8686 29.051 28.9785 29.0753C29.0883 29.0996 29.1924 29.1454 29.2846 29.21L41.3974 37.6828C41.547 37.7876 41.6594 37.9377 41.7182 38.1111C41.7769 38.2845 41.7789 38.4722 41.7239 38.6468C41.669 38.8215 41.5599 38.9739 41.4125 39.082C41.2652 39.19 41.0873 39.248 40.9048 39.2476V39.2433Z" fill="#00345E"/>
<path d="M11.1362 39.2432C10.9538 39.2436 10.7759 39.1856 10.6286 39.0776C10.4812 38.9695 10.3721 38.8171 10.3171 38.6424C10.2622 38.4678 10.2642 38.2801 10.3229 38.1067C10.3817 37.9333 10.494 37.7832 10.6437 37.6784L22.7522 29.2056C22.9385 29.0751 23.1688 29.0241 23.3925 29.0641C23.6162 29.104 23.815 29.2314 23.945 29.4184C24.0751 29.6054 24.1258 29.8365 24.0861 30.0611C24.0463 30.2856 23.9193 30.4851 23.733 30.6156L11.6202 39.0927C11.4777 39.1907 11.309 39.2431 11.1362 39.2432Z" fill="#00345E"/>
</svg>
