<svg width="322" height="32" viewBox="0 0 322 32" fill="none" xmlns="http://www.w3.org/2000/svg">
<path d="M49.2559 25.4928L30.8071 7.10224L30.4914 6.79144L30.1806 7.1071L11.9357 25.4928H13.1887L30.5011 8.04921L47.9933 25.4928H49.2559Z" fill="#A58A57"/>
<path d="M8.56072 25.4932L30.5692 3.50421L52.6213 25.4932H54.1656L30.5546 1.96478L7.03101 25.4932H8.56072Z" fill="#A58A57"/>
<path d="M0.557129 32L60.6385 31.9758L57.4674 28.7609H3.80109L0.557129 32Z" fill="#A58A57"/>
<path d="M41.2809 14.2555H39.892V7.45681C41.0818 7.34998 43.2914 7.2917 43.8353 7.2917C44.6463 7.2917 47.2346 7.45682 48.808 7.67049C48.7789 7.37426 48.7255 6.94205 48.7255 6.75266C48.7339 6.42757 48.7614 6.10325 48.808 5.78141C47.0501 5.88825 43.9518 6.02423 42.4561 6.02423C41.8345 6.02423 38.9742 5.85911 37.2454 5.78141C37.4639 7.30142 37.4639 11.9051 37.4639 14.9597C37.4639 16.9653 37.4639 19.2138 37.3959 21.3359C35.3126 23.3998 33.3167 24.1574 31.617 24.1574C26.212 24.1574 23.847 18.4465 23.847 13.1629C23.847 7.6802 26.0954 1.77988 31.617 1.77988C33.3069 1.77988 35.1377 2.6977 37.1871 4.92186H37.629L38.3234 2.12952C36.2304 0.832909 33.7877 0.502686 31.7675 0.502686C27.6203 0.502686 24.352 2.47917 22.5018 5.90768C21.278 5.96595 19.8018 6.01451 18.2769 6.01451C15.8488 6.01451 12.5271 5.87854 11.1819 5.80084C11.2111 6.12135 11.2645 6.55356 11.2645 6.77209C11.2645 6.99062 11.2111 7.35969 11.1819 7.65592C12.9317 7.47003 14.6918 7.39866 16.4509 7.44225H16.9609C17.0434 8.89912 17.0677 12.9444 17.0677 15.0374C17.0677 18.4368 17.0143 22.4917 16.854 25.4492C17.2862 25.42 18.0341 25.3666 18.3594 25.3666C18.5731 25.3666 19.2724 25.42 19.7046 25.4492C19.5395 22.4869 19.4958 18.4125 19.4958 15.0325C19.4958 12.9395 19.5249 8.91369 19.6026 7.43739H20.1174H21.8122C21.1488 9.28089 20.8199 11.228 20.841 13.1872C20.841 20.7969 25.0271 25.4492 31.1508 25.4492C33.3427 25.4982 35.4981 24.8819 37.3328 23.6815C37.3328 24.2934 37.2842 24.8858 37.2551 25.4346C37.7742 25.376 38.2964 25.3484 38.8188 25.352C39.9794 25.352 41.8151 25.4346 42.3055 25.4346C46.6762 25.4346 50.0027 23.6475 50.0027 19.6751C50.0075 14.7946 44.0926 14.2555 41.2809 14.2555ZM42.2036 23.9292C41.446 23.9292 40.6059 23.9 39.9066 23.8757V15.6881C45.0396 15.6881 47.2541 16.6594 47.2541 19.6605C47.2541 22.4432 45.3893 23.9292 42.2036 23.9292Z" fill="#00345E"/>
<path d="M231.927 4.13516L232.622 3.01337C234.076 3.92349 235.763 4.39088 237.478 4.35854C239.212 4.38124 240.917 3.91504 242.397 3.01337L243.048 4.11088C241.367 5.1305 239.439 5.67122 237.473 5.67458C235.52 5.66558 233.606 5.13404 231.927 4.13516ZM312.327 14.882C315.168 11.9974 318.704 8.67088 321.171 6.40788C320.801 6.43216 320.199 6.48558 319.816 6.48558C319.432 6.48558 318.883 6.43216 318.446 6.40788C316.562 8.5689 312.114 13.4009 309.899 15.0714C309.899 12.2888 309.923 7.84532 310.098 6.41273C309.69 6.43701 309.064 6.49043 308.836 6.49043C308.491 6.49043 307.816 6.43701 307.35 6.41273C307.529 7.84532 307.558 12.2888 307.558 15.2268C307.558 18.4999 307.505 22.448 307.35 25.3083C307.767 25.3083 308.491 25.2355 308.807 25.2355C309.015 25.2355 309.69 25.2841 310.098 25.3083C309.953 22.448 309.899 18.5096 309.899 15.7707C312.761 18.8116 315.468 21.9949 318.009 25.3083C318.456 25.2598 319.306 25.2355 319.752 25.2355C320.321 25.2355 320.894 25.2355 321.442 25.3083C319.058 22.6811 314.59 17.5578 312.327 14.882ZM302.76 25.3035C302.6 22.4432 302.552 18.5048 302.552 15.2219C302.552 12.3082 302.576 7.84047 302.76 6.40788C302.348 6.43216 301.721 6.48558 301.483 6.48558C301.153 6.48558 300.473 6.43216 300.026 6.40788C300.206 7.84047 300.23 12.2839 300.23 14.309C298.055 14.4644 296.234 14.5178 295.112 14.5178C293.99 14.5178 291.761 14.4692 289.032 14.3381C289.032 12.2839 289.032 7.84047 289.241 6.40788C288.823 6.43216 288.202 6.48558 287.964 6.48558C287.624 6.48558 286.949 6.43216 286.482 6.40788C286.662 7.84047 286.691 12.2839 286.691 15.2219C286.691 18.495 286.638 22.4432 286.482 25.3035C286.905 25.3035 287.624 25.2306 287.939 25.2306C288.148 25.2306 288.823 25.2792 289.241 25.3035C289.085 22.4432 289.032 18.2085 289.032 16.1058C291.761 15.9504 293.446 15.897 294.986 15.897C296.413 15.897 298.055 15.9504 300.23 16.1058C300.23 18.1551 300.182 22.4189 300.026 25.3035C300.444 25.3035 301.168 25.2306 301.483 25.2306C301.687 25.2306 302.367 25.2695 302.78 25.3035H302.76ZM275.129 6.48072C276.066 8.82142 281.5 21.6079 283.423 25.2744C283.005 25.2501 282.301 25.2258 281.966 25.2258C281.631 25.2258 280.873 25.2258 280.456 25.2744C279.727 23.531 278.246 19.6605 277.571 18.2037C276.376 18.0406 275.17 17.9675 273.963 17.9851C272.885 17.9763 271.809 18.0542 270.743 18.2182C269.889 19.9616 268.456 23.9389 267.985 25.2889C267.698 25.2646 267.315 25.2404 267.014 25.2404C266.713 25.2404 266.188 25.2404 265.926 25.2889C267.902 21.8896 273.643 8.42321 274.502 6.49043L275.129 6.48072ZM276.741 16.4117C276.202 14.9549 275.672 13.7651 274.167 10.3609L271.545 16.4117C272.415 16.5202 273.29 16.5818 274.167 16.5963C275.034 16.5823 275.9 16.5207 276.76 16.4117H276.741ZM253.586 14.5421H254.907C257.617 14.5421 263.304 15.0665 263.304 19.7674C263.304 23.5892 260.108 25.3278 255.898 25.3035C255.412 25.3035 253.664 25.2306 252.542 25.2306C252.038 25.2289 251.534 25.2532 251.032 25.3035C251.197 22.4432 251.25 18.5048 251.25 15.2219C251.25 12.3082 251.216 7.84047 251.032 6.40788C252.698 6.48558 255.451 6.64097 256.053 6.64097C257.51 6.64097 260.472 6.51471 262.162 6.40788C262.116 6.71835 262.088 7.03133 262.08 7.34513C262.08 7.52967 262.138 7.94245 262.162 8.22896C260.652 8.02015 258.161 7.86475 257.379 7.86475C256.835 7.86475 254.732 7.91816 253.586 8.02015V14.5421ZM253.586 23.7981C254.261 23.8272 255.043 23.8515 255.796 23.8515C258.86 23.8515 260.652 22.4189 260.652 19.7431C260.652 16.8585 258.525 15.9261 253.586 15.9261V23.7981ZM246.2 25.3035C246.049 22.4432 245.996 18.5048 245.996 15.2219C245.996 12.3082 246.02 7.84047 246.2 6.40788C245.978 6.45584 245.752 6.48187 245.525 6.48558C245.341 6.48558 245.158 6.45941 244.981 6.40788C241.805 10.6182 234.919 17.7715 231.646 21.0446V15.2171C231.646 12.3033 231.67 7.83561 231.855 6.40302C231.437 6.4273 230.82 6.48072 230.587 6.48072C230.252 6.48072 229.562 6.4273 229.101 6.40302C229.281 7.83561 229.305 12.2791 229.305 15.2171C229.305 18.4902 229.257 22.4383 229.101 25.2986C229.269 25.2469 229.445 25.2223 229.621 25.2258C229.813 25.2229 230.004 25.2474 230.189 25.2986C233.36 21.5836 239.571 14.6975 243.655 10.929V15.2171C243.655 18.4902 243.607 22.4383 243.451 25.2986C243.859 25.2986 244.588 25.2258 244.908 25.2258C245.132 25.2306 245.797 25.2695 246.219 25.3035H246.2ZM214.824 6.09222C220.651 6.09222 225.022 9.65184 225.022 15.5813C225.022 21.2971 220.71 25.6094 214.63 25.6094C208.88 25.6094 204.567 22.0255 204.567 15.9989C204.567 10.0938 208.938 6.08736 214.809 6.08736L214.824 6.09222ZM222.23 15.6639C222.23 10.6182 219.685 7.32085 214.877 7.32085C210.249 7.32085 207.389 10.5697 207.389 16.0038C207.389 20.4715 209.817 24.3954 214.751 24.3954C219.219 24.3954 222.23 21.0689 222.23 15.6639ZM195.409 6.40788C200.211 6.40788 202.091 7.86475 202.091 11.1378C202.091 15.3773 198.526 16.7274 194.287 16.7274C194.054 16.7274 193.068 16.6788 192.577 16.6254V21.1223C192.568 22.5187 192.636 23.9146 192.781 25.3035C192.343 25.255 191.902 25.2307 191.46 25.2306C190.982 25.2291 190.504 25.2534 190.028 25.3035C190.183 22.4432 190.237 18.5048 190.237 15.2219C190.237 12.3082 190.208 7.84047 190.028 6.40788C190.883 6.43216 192.053 6.48072 192.655 6.48558C193.563 6.48558 194.734 6.40788 195.409 6.40788ZM199.439 11.1378C199.439 8.5689 197.404 7.86475 194.889 7.86475C194.442 7.86475 192.946 7.88903 192.577 7.94245V15.2268C192.937 15.285 193.301 15.3191 193.665 15.3288C197.302 15.3482 199.439 13.8913 199.439 11.1378ZM186.726 8.07356C186.696 7.7919 186.648 7.39855 186.648 7.21401C186.648 7.02947 186.696 6.58756 186.726 6.28161C185.429 6.35931 182.258 6.48558 179.864 6.48558C177.47 6.48558 174.298 6.35931 173.002 6.28161C173.002 6.58756 173.084 7.00519 173.084 7.21401C173.084 7.42283 173.026 7.7919 173.002 8.07356C174.693 7.89036 176.395 7.8206 178.096 7.86475H178.582C178.659 9.29734 178.679 13.2066 178.679 15.2219C178.679 18.495 178.635 22.4432 178.475 25.3035C178.892 25.3035 179.621 25.2306 179.932 25.2306C180.145 25.2306 180.82 25.2792 181.238 25.3035C181.078 22.4432 181.034 18.5048 181.034 15.2219C181.034 13.192 181.034 9.29734 181.131 7.86475H181.617C183.323 7.81978 185.029 7.88955 186.726 8.07356ZM169.632 9.55472L170.282 7.36941C168.366 6.47134 166.265 6.03555 164.149 6.09708C158.016 6.09708 153.907 9.94321 153.907 16.0232C153.907 21.977 157.831 25.6143 163.581 25.6143C165.71 25.6657 167.814 25.1369 169.666 24.0846L169.918 22.4432L169.709 22.1615C168.163 23.5995 166.129 24.3978 164.018 24.3954C158.953 24.3954 156.733 20.1316 156.733 16.0038C156.733 11.7109 158.836 7.32085 164.018 7.32085C165.606 7.32085 167.32 7.80647 169.248 9.55472H169.632ZM151.154 9.55472L151.8 7.36941C149.884 6.47174 147.785 6.03595 145.671 6.09708C139.538 6.09708 135.429 9.94321 135.429 16.0232C135.429 21.977 139.353 25.6143 145.098 25.6143C147.228 25.6665 149.331 25.1376 151.183 24.0846L151.435 22.4432L151.231 22.1615C149.687 23.5988 147.655 24.3971 145.545 24.3954C140.47 24.3954 138.231 20.1316 138.231 16.0038C138.231 11.7109 140.344 7.32085 145.516 7.32085C147.094 7.32085 148.813 7.80647 150.736 9.55472H151.154ZM131.607 25.3035C131.457 22.4432 131.403 18.5048 131.403 15.2219C131.403 12.3082 131.428 7.84047 131.607 6.40788C131.195 6.43216 130.568 6.48558 130.34 6.48558C130 6.48558 129.32 6.43216 128.854 6.40788C129.034 7.84047 129.063 12.2839 129.063 14.309C126.877 14.4644 125.061 14.5178 123.944 14.5178C122.827 14.5178 120.589 14.4692 117.859 14.3381C117.859 12.2839 117.888 7.84047 118.068 6.40788C117.65 6.43216 117.029 6.48558 116.791 6.48558C116.456 6.48558 115.781 6.43216 115.334 6.40788C115.519 7.84047 115.543 12.2839 115.543 15.2219C115.543 18.495 115.489 22.4432 115.334 25.3035C115.752 25.3035 116.48 25.2306 116.791 25.2306C116.995 25.2306 117.67 25.2792 118.092 25.3035C117.937 22.4432 117.884 18.2085 117.884 16.1058C120.613 15.9504 122.303 15.897 123.837 15.897C125.265 15.897 126.902 15.9504 129.087 16.1058C129.087 18.1551 129.033 22.4189 128.878 25.3035C129.291 25.3035 130.024 25.2306 130.335 25.2306C130.515 25.2306 131.19 25.2695 131.607 25.3035ZM103.995 6.48072C104.913 8.82628 110.347 21.6128 112.25 25.2695C111.838 25.2452 111.133 25.2209 110.793 25.2209C110.454 25.2209 109.706 25.2209 109.288 25.2695C108.56 23.5261 107.078 19.6557 106.399 18.1988C105.202 18.0304 103.994 17.9524 102.786 17.9657C101.706 17.9572 100.628 18.0351 99.561 18.1988C98.7112 19.9422 97.2834 23.9195 96.8075 25.2695C96.5259 25.2452 96.1325 25.2209 95.8363 25.2209C95.54 25.2209 95.001 25.2209 94.7436 25.2695C96.7201 21.8701 102.46 8.40379 103.32 6.47101L103.995 6.48072ZM105.607 16.4117C105.058 14.9549 104.539 13.7651 103.033 10.3609L100.406 16.4117C101.278 16.5202 102.155 16.5818 103.033 16.5963C103.889 16.5808 104.743 16.5192 105.592 16.4117H105.607ZM88.7073 6.40788C93.515 6.40788 95.3895 7.86475 95.3895 11.1378C95.3895 15.3773 91.8299 16.7274 87.5904 16.7274C87.3573 16.7274 86.3715 16.6788 85.8761 16.6254V21.1223C85.8682 22.5188 85.9379 23.9147 86.0849 25.3035C85.6447 25.255 85.2021 25.2307 84.7592 25.2306C84.2823 25.2293 83.8057 25.2536 83.3315 25.3035C83.4869 22.4432 83.5354 18.5048 83.5354 15.2219C83.5354 12.3082 83.5111 7.84047 83.3315 6.40788C84.1862 6.43216 85.3565 6.48072 85.9538 6.48558C86.8619 6.48558 88.0323 6.40788 88.7073 6.40788ZM92.738 11.1378C92.738 8.5689 90.7081 7.86475 88.1926 7.86475C87.7506 7.86475 86.2501 7.88903 85.8761 7.94245V15.2268C86.2377 15.2848 86.6027 15.3189 86.9688 15.3288C90.5915 15.3482 92.7234 13.8913 92.7234 11.1378H92.738ZM79.6504 8.07356C79.6213 7.7919 79.5727 7.39855 79.5727 7.21401C79.5727 7.02947 79.6213 6.58756 79.6504 6.28161C78.3538 6.35931 75.1827 6.48558 72.7886 6.48558C70.3945 6.48558 67.2282 6.35931 65.9267 6.28161C65.9267 6.58756 66.0044 7.00519 66.0044 7.21401C66.0044 7.42283 65.951 7.7919 65.9267 8.07356C67.6182 7.89005 69.3201 7.82029 71.0209 7.86475H71.5065C71.5842 9.29734 71.6134 13.2066 71.6134 15.2219C71.6134 18.495 71.5551 22.4432 71.4045 25.3035C71.8222 25.3035 72.5458 25.2306 72.8614 25.2306C73.0702 25.2306 73.7453 25.2792 74.158 25.3035C74.0026 22.4432 73.9492 18.5048 73.9492 15.2219C73.9492 13.192 73.9784 9.29734 74.0561 7.86475H74.5417C76.2425 7.8206 77.9444 7.89036 79.6359 8.07356H79.6504Z" fill="#00345E"/>
</svg>
