<svg width="209" height="21" viewBox="0 0 209 21" fill="none" xmlns="http://www.w3.org/2000/svg">
<path d="M31.7186 16.2767L19.7025 4.2985L19.4969 4.09607L19.2944 4.30166L7.41113 16.2767H8.22718L19.5032 4.91528L30.8962 16.2767H31.7186Z" fill="#A58A57"/>
<path d="M5.21289 16.2766L19.5475 1.95469L33.9106 16.2766H34.9164L19.538 0.952026L4.21655 16.2766H5.21289Z" fill="#A58A57"/>
<path d="M0 20.515L39.1323 20.4992L37.0669 18.4053H2.11287L0 20.515Z" fill="#A58A57"/>
<path d="M26.5248 8.95755H25.6202V4.52938C26.3951 4.4598 27.8343 4.42184 28.1885 4.42184C28.7167 4.42184 30.4026 4.52938 31.4274 4.66855C31.4084 4.47561 31.3736 4.19411 31.3736 4.07075C31.3791 3.85901 31.397 3.64778 31.4274 3.43816C30.2824 3.50774 28.2644 3.5963 27.2902 3.5963C26.8854 3.5963 25.0224 3.48876 23.8963 3.43816C24.0387 4.42817 24.0387 7.42667 24.0387 9.41618C24.0387 10.7225 24.0387 12.1869 23.9944 13.5692C22.6375 14.9134 21.3375 15.4069 20.2305 15.4069C16.7101 15.4069 15.1697 11.6872 15.1697 8.24588C15.1697 4.67488 16.6342 0.831863 20.2305 0.831863C21.3312 0.831863 22.5236 1.42967 23.8584 2.87831H24.1462L24.5985 1.0596C23.2353 0.215082 21.6443 0 20.3285 0C17.6273 0 15.4986 1.28733 14.2936 3.52039C13.4965 3.55835 12.5349 3.58998 11.5418 3.58998C9.96028 3.58998 7.7968 3.50142 6.92065 3.45081C6.93963 3.65956 6.97442 3.94107 6.97442 4.0834C6.97442 4.22574 6.93963 4.46612 6.92065 4.65906C8.06035 4.53799 9.20673 4.4915 10.3525 4.51989H10.6846C10.7384 5.46879 10.7542 8.10355 10.7542 9.46679C10.7542 11.6809 10.7194 14.322 10.615 16.2482C10.8965 16.2292 11.3836 16.1944 11.5955 16.1944C11.7347 16.1944 12.1902 16.2292 12.4717 16.2482C12.3641 14.3188 12.3357 11.6651 12.3357 9.46363C12.3357 8.10038 12.3546 5.47828 12.4053 4.51673H12.7405H13.8444C13.4123 5.71745 13.1981 6.98567 13.2118 8.26169C13.2118 13.2181 15.9383 16.2482 19.9268 16.2482C21.3545 16.2801 22.7583 15.8787 23.9533 15.0969C23.9533 15.4954 23.9217 15.8813 23.9027 16.2387C24.2408 16.2005 24.5809 16.1826 24.9212 16.1849C25.6771 16.1849 26.8727 16.2387 27.1922 16.2387C30.0388 16.2387 32.2055 15.0747 32.2055 12.4874C32.2087 9.30864 28.3561 8.95755 26.5248 8.95755ZM27.1257 15.2582C26.6323 15.2582 26.0851 15.2392 25.6297 15.2234V9.89063C28.9729 9.89063 30.4152 10.5232 30.4152 12.4779C30.4152 14.2903 29.2007 15.2582 27.1257 15.2582Z" fill="#00345E"/>
<path d="M150.697 2.3659L151.149 1.63525C152.096 2.22804 153.195 2.53246 154.312 2.5114C155.441 2.52618 156.552 2.22253 157.516 1.63525L157.94 2.35009C156.845 3.01419 155.589 3.36637 154.309 3.36856C153.037 3.3627 151.79 3.0165 150.697 2.3659ZM203.063 9.36557C204.913 7.48676 207.216 5.32012 208.823 3.84617C208.582 3.86199 208.19 3.89678 207.94 3.89678C207.69 3.89678 207.333 3.86199 207.048 3.84617C205.821 5.2537 202.924 8.40086 201.481 9.48892C201.481 7.67654 201.497 4.78242 201.611 3.84934C201.345 3.86515 200.937 3.89995 200.789 3.89995C200.564 3.89995 200.125 3.86515 199.821 3.84934C199.938 4.78242 199.957 7.67654 199.957 9.59014C199.957 11.722 199.922 14.2935 199.821 16.1565C200.093 16.1565 200.564 16.109 200.77 16.109C200.906 16.109 201.345 16.1407 201.611 16.1565C201.516 14.2935 201.481 11.7283 201.481 9.94439C203.345 11.925 205.108 13.9983 206.764 16.1565C207.055 16.1249 207.608 16.109 207.899 16.109C208.269 16.109 208.642 16.109 209 16.1565C207.447 14.4453 204.537 11.1084 203.063 9.36557ZM196.832 16.1533C196.727 14.2903 196.696 11.7251 196.696 9.58698C196.696 7.68919 196.712 4.77925 196.832 3.84617C196.563 3.86199 196.155 3.89678 196 3.89678C195.785 3.89678 195.342 3.86199 195.051 3.84617C195.168 4.77925 195.184 7.67338 195.184 8.99234C193.767 9.09355 192.581 9.12835 191.85 9.12835C191.12 9.12835 189.668 9.09672 187.89 9.01131C187.89 7.67338 187.89 4.77925 188.026 3.84617C187.754 3.86199 187.349 3.89678 187.194 3.89678C186.973 3.89678 186.533 3.86199 186.23 3.84617C186.347 4.77925 186.366 7.67338 186.366 9.58698C186.366 11.7188 186.331 14.2903 186.23 16.1533C186.505 16.1533 186.973 16.1059 187.178 16.1059C187.314 16.1059 187.754 16.1375 188.026 16.1533C187.925 14.2903 187.89 11.5322 187.89 10.1626C189.668 10.0614 190.765 10.0266 191.768 10.0266C192.698 10.0266 193.767 10.0614 195.184 10.1626C195.184 11.4974 195.152 14.2745 195.051 16.1533C195.323 16.1533 195.794 16.1059 196 16.1059C196.133 16.1059 196.576 16.1312 196.845 16.1533H196.832ZM178.835 3.89362C179.445 5.41817 182.984 13.7463 184.237 16.1343C183.965 16.1185 183.506 16.1027 183.288 16.1027C183.07 16.1027 182.576 16.1027 182.304 16.1343C181.83 14.9988 180.865 12.4779 180.426 11.529C179.647 11.4228 178.861 11.3752 178.075 11.3867C177.373 11.3809 176.672 11.4317 175.978 11.5385C175.422 12.674 174.489 15.2645 174.182 16.1438C173.995 16.128 173.745 16.1122 173.549 16.1122C173.353 16.1122 173.011 16.1122 172.841 16.1438C174.128 13.9297 177.867 5.15881 178.426 3.89995L178.835 3.89362ZM179.885 10.3619C179.534 9.41301 179.189 8.63808 178.208 6.42084L176.5 10.3619C177.067 10.4326 177.637 10.4727 178.208 10.4821C178.773 10.473 179.337 10.4329 179.897 10.3619H179.885ZM164.804 9.14416H165.664C167.429 9.14416 171.133 9.48576 171.133 12.5475C171.133 15.0368 169.051 16.1691 166.309 16.1533C165.993 16.1533 164.854 16.1059 164.124 16.1059C163.795 16.1047 163.467 16.1206 163.14 16.1533C163.247 14.2903 163.282 11.7251 163.282 9.58698C163.282 7.68919 163.26 4.77925 163.14 3.84617C164.225 3.89678 166.018 3.998 166.41 3.998C167.359 3.998 169.289 3.91576 170.389 3.84617C170.359 4.04839 170.341 4.25225 170.336 4.45663C170.336 4.57682 170.374 4.84567 170.389 5.03229C169.406 4.89628 167.783 4.79507 167.274 4.79507C166.92 4.79507 165.55 4.82986 164.804 4.89628V9.14416ZM164.804 15.1728C165.243 15.1918 165.752 15.2076 166.243 15.2076C168.239 15.2076 169.406 14.2745 169.406 12.5317C169.406 10.6529 168.02 10.0456 164.804 10.0456V15.1728ZM159.993 16.1533C159.895 14.2903 159.86 11.7251 159.86 9.58698C159.86 7.68919 159.876 4.77925 159.993 3.84617C159.848 3.87742 159.701 3.89437 159.553 3.89678C159.433 3.89678 159.314 3.87974 159.199 3.84617C157.13 6.58848 152.645 11.2475 150.513 13.3794V9.58381C150.513 7.68603 150.529 4.77609 150.649 3.84301C150.377 3.85883 149.976 3.89362 149.824 3.89362C149.605 3.89362 149.156 3.85883 148.856 3.84301C148.973 4.77609 148.989 7.67021 148.989 9.58381C148.989 11.7157 148.957 14.2872 148.856 16.1502C148.965 16.1165 149.08 16.1004 149.194 16.1027C149.319 16.1008 149.444 16.1168 149.564 16.1502C151.63 13.7305 155.675 9.24538 158.335 6.79091V9.58381C158.335 11.7157 158.304 14.2872 158.202 16.1502C158.468 16.1502 158.943 16.1027 159.151 16.1027C159.297 16.1059 159.73 16.1312 160.005 16.1533H159.993ZM139.557 3.64058C143.352 3.64058 146.199 5.95904 146.199 9.82104C146.199 13.5439 143.39 16.3526 139.43 16.3526C135.685 16.3526 132.876 14.0183 132.876 10.0931C132.876 6.24687 135.723 3.63742 139.547 3.63742L139.557 3.64058ZM144.38 9.87481C144.38 6.58847 142.723 4.44081 139.591 4.44081C136.577 4.44081 134.714 6.55685 134.714 10.0962C134.714 13.0062 136.296 15.5618 139.509 15.5618C142.419 15.5618 144.38 13.3952 144.38 9.87481ZM126.911 3.84617C130.039 3.84617 131.263 4.79507 131.263 6.92691C131.263 9.68819 128.942 10.5675 126.18 10.5675C126.029 10.5675 125.387 10.5359 125.067 10.5011V13.43C125.061 14.3395 125.105 15.2487 125.2 16.1533C124.914 16.1217 124.627 16.1059 124.34 16.1059C124.028 16.1048 123.716 16.1207 123.407 16.1533C123.508 14.2903 123.543 11.7251 123.543 9.58698C123.543 7.68919 123.524 4.77925 123.407 3.84617C123.963 3.86199 124.725 3.89362 125.118 3.89678C125.709 3.89678 126.471 3.84617 126.911 3.84617ZM129.536 6.92691C129.536 5.2537 128.211 4.79507 126.573 4.79507C126.282 4.79507 125.307 4.81088 125.067 4.84567V9.59014C125.302 9.62805 125.538 9.65024 125.776 9.65656C128.145 9.66921 129.536 8.72032 129.536 6.92691ZM121.256 4.93108C121.237 4.74762 121.205 4.49142 121.205 4.37123C121.205 4.25104 121.237 3.9632 121.256 3.76394C120.411 3.81454 118.346 3.89678 116.786 3.89678C115.227 3.89678 113.162 3.81454 112.317 3.76394C112.317 3.9632 112.371 4.23522 112.371 4.37123C112.371 4.50724 112.333 4.74762 112.317 4.93108C113.419 4.81175 114.527 4.76631 115.635 4.79507H115.951C116.002 5.72815 116.015 8.27434 116.015 9.58698C116.015 11.7188 115.986 14.2903 115.882 16.1533C116.154 16.1533 116.628 16.1059 116.831 16.1059C116.97 16.1059 117.41 16.1375 117.682 16.1533C117.577 14.2903 117.549 11.7251 117.549 9.58698C117.549 8.26485 117.549 5.72815 117.612 4.79507H117.928C119.039 4.76578 120.151 4.81122 121.256 4.93108ZM110.122 5.89578L110.546 4.47244C109.297 3.88751 107.929 3.60367 106.551 3.64374C102.556 3.64374 99.8803 6.14882 99.8803 10.1089C99.8803 13.9867 102.436 16.3557 106.181 16.3557C107.568 16.3893 108.938 16.0448 110.144 15.3594L110.309 14.2903L110.173 14.1069C109.166 15.0435 107.841 15.5634 106.466 15.5618C103.167 15.5618 101.721 12.7847 101.721 10.0962C101.721 7.30014 103.091 4.44081 106.466 4.44081C107.5 4.44081 108.616 4.75711 109.872 5.89578H110.122ZM98.0869 5.89578L98.5076 4.47244C97.2602 3.88777 95.893 3.60393 94.5159 3.64374C90.5211 3.64374 87.8452 6.14882 87.8452 10.1089C87.8452 13.9867 90.4009 16.3557 94.1427 16.3557C95.5297 16.3897 96.8998 16.0453 98.1059 15.3594L98.2704 14.2903L98.1375 14.1069C97.1314 15.043 95.8079 15.5629 94.4337 15.5618C91.1283 15.5618 89.6702 12.7847 89.6702 10.0962C89.6702 7.30014 91.0461 4.44081 94.4147 4.44081C95.4426 4.44081 96.5623 4.75711 97.8149 5.89578H98.0869ZM85.3559 16.1533C85.2579 14.2903 85.2231 11.7251 85.2231 9.58698C85.2231 7.68919 85.2389 4.77925 85.3559 3.84617C85.0871 3.86199 84.679 3.89678 84.5304 3.89678C84.309 3.89678 83.8662 3.86199 83.5625 3.84617C83.6795 4.77925 83.6985 7.67338 83.6985 8.99234C82.2752 9.09355 81.0922 9.12835 80.3647 9.12835C79.6373 9.12835 78.1791 9.09672 76.4015 9.01131C76.4015 7.67338 76.4205 4.77925 76.5375 3.84617C76.2655 3.86199 75.8607 3.89678 75.7057 3.89678C75.4874 3.89678 75.0478 3.86199 74.7568 3.84617C74.877 4.77925 74.8928 7.67338 74.8928 9.58698C74.8928 11.7188 74.858 14.2903 74.7568 16.1533C75.0288 16.1533 75.5032 16.1059 75.7057 16.1059C75.8385 16.1059 76.2782 16.1375 76.5534 16.1533C76.4521 14.2903 76.4173 11.5322 76.4173 10.1626C78.1949 10.0614 79.2957 10.0266 80.2952 10.0266C81.2251 10.0266 82.291 10.0614 83.7143 10.1626C83.7143 11.4974 83.6795 14.2745 83.5783 16.1533C83.8472 16.1533 84.3248 16.1059 84.5272 16.1059C84.6442 16.1059 85.0839 16.1312 85.3559 16.1533ZM67.3712 3.89362C67.969 5.42134 71.5084 13.7495 72.7483 16.1312C72.4794 16.1154 72.0208 16.0995 71.7994 16.0995C71.578 16.0995 71.0909 16.0995 70.8189 16.1312C70.3444 14.9957 69.3797 12.4748 68.9369 11.5259C68.1574 11.4162 67.3708 11.3654 66.5837 11.3741C65.8806 11.3685 65.1783 11.4193 64.4834 11.5259C63.9299 12.6614 63 15.2519 62.69 16.1312C62.5066 16.1154 62.2504 16.0995 62.0574 16.0995C61.8645 16.0995 61.5134 16.0995 61.3458 16.1312C62.6331 13.9171 66.3717 5.14616 66.9316 3.88729L67.3712 3.89362ZM68.4213 10.3619C68.0639 9.41301 67.7255 8.63808 66.745 6.42084L65.0338 10.3619C65.6016 10.4326 66.1728 10.4727 66.745 10.4821C67.3023 10.472 67.8588 10.4319 68.4118 10.3619H68.4213ZM57.4142 3.84617C60.5455 3.84617 61.7664 4.79507 61.7664 6.92691C61.7664 9.68819 59.448 10.5675 56.6867 10.5675C56.5349 10.5675 55.8928 10.5359 55.5702 10.5011V13.43C55.565 14.3396 55.6104 15.2488 55.7062 16.1533C55.4194 16.1218 55.1312 16.1059 54.8427 16.1059C54.5321 16.105 54.2217 16.1208 53.9128 16.1533C54.014 14.2903 54.0456 11.7251 54.0456 9.58698C54.0456 7.68919 54.0298 4.77925 53.9128 3.84617C54.4695 3.86199 55.2317 3.89362 55.6208 3.89678C56.2123 3.89678 56.9745 3.84617 57.4142 3.84617ZM60.0395 6.92691C60.0395 5.2537 58.7173 4.79507 57.0789 4.79507C56.7911 4.79507 55.8137 4.81088 55.5702 4.84567V9.59014C55.8057 9.62792 56.0434 9.65011 56.2818 9.65656C58.6414 9.66921 60.03 8.72032 60.03 6.92691H60.0395ZM51.5152 4.93108C51.4963 4.74762 51.4646 4.49142 51.4646 4.37123C51.4646 4.25104 51.4963 3.9632 51.5152 3.76394C50.6707 3.81454 48.6053 3.89678 47.0459 3.89678C45.4866 3.89678 43.4243 3.81454 42.5767 3.76394C42.5767 3.9632 42.6273 4.23522 42.6273 4.37123C42.6273 4.50724 42.5925 4.74762 42.5767 4.93108C43.6784 4.81155 44.7868 4.76611 45.8946 4.79507H46.2109C46.2615 5.72815 46.2805 8.27434 46.2805 9.58698C46.2805 11.7188 46.2425 14.2903 46.1445 16.1533C46.4165 16.1533 46.8878 16.1059 47.0934 16.1059C47.2294 16.1059 47.6691 16.1375 47.9379 16.1533C47.8367 14.2903 47.8019 11.7251 47.8019 9.58698C47.8019 8.26485 47.8209 5.72815 47.8715 4.79507H48.1878C49.2956 4.76631 50.404 4.81175 51.5057 4.93108H51.5152Z" fill="#00345E"/>
</svg>
