<svg width="65" height="60" viewBox="0 0 65 60" fill="none" xmlns="http://www.w3.org/2000/svg">
<path d="M54.6909 21.3706C54.6083 22.4811 54.4051 23.5792 54.0847 24.6456C53.8026 25.3364 53.3164 25.9247 52.6911 26.3318C52.5796 26.9798 52.4472 27.5651 52.3078 28.0668C51.6111 30.5962 48.3779 35.6131 44.0369 35.7315H42.936C38.3929 35.6897 35.0971 30.2826 34.4839 28.0668C34.3097 27.4397 34.1843 26.7987 34.1006 26.3318C33.4739 25.9232 32.9875 25.3322 32.7071 24.6386C32.3792 23.5752 32.1666 22.4795 32.073 21.3706C31.9477 20.4032 32.0898 19.42 32.4841 18.5277C31.7873 11.1208 34.895 9.23948 35.8844 8.83533C36.1196 8.73586 36.3345 8.59417 36.5185 8.41726C39.5635 5.55344 46.9704 5.10052 50.3499 8.54965C50.6173 8.82947 50.9278 9.0647 51.2696 9.24644C52.1336 9.69239 54.879 11.6783 54.2658 18.5486C54.6604 19.4335 54.8073 20.4088 54.6909 21.3706ZM52.6771 19.2803C52.5437 19.1052 52.4814 18.8861 52.5029 18.6671C52.9837 13.8941 51.7086 11.4553 50.4683 10.8142C49.9524 10.5547 49.4818 10.2136 49.0747 9.80388C46.4199 7.05851 40.1488 7.39994 37.71 9.68542C37.3703 10.0107 36.9734 10.2705 36.5394 10.4519C36.0308 10.6609 33.5223 12.0336 34.24 18.6322C34.2635 18.8504 34.2038 19.0694 34.0728 19.2454C33.788 19.866 33.6888 20.5556 33.7871 21.2313C33.8658 22.1752 34.0385 23.1089 34.3027 24.0185C34.4932 24.4526 34.8385 24.8003 35.2713 24.994C35.3999 25.055 35.5116 25.1466 35.5967 25.2608C35.6817 25.3749 35.7374 25.5082 35.759 25.649C35.8604 26.3109 35.9976 26.9668 36.1701 27.6139C36.6648 29.5092 39.5914 33.9896 42.936 34.0244H43.9463C47.4303 33.9059 50.1199 29.3907 50.6007 27.6139C50.7733 26.9669 50.9105 26.3109 51.0118 25.649C51.0345 25.5095 51.0907 25.3776 51.1757 25.2647C51.2606 25.1518 51.3718 25.0613 51.4996 25.0009C51.9272 24.7989 52.2631 24.4431 52.4402 24.0045C52.7064 23.0954 52.8792 22.1615 52.9559 21.2173C53.0612 20.5483 52.9691 19.863 52.6911 19.2454L52.6771 19.2803ZM30.8606 39.7102C31.634 39.3967 33.1042 38.8253 33.1042 38.8253C33.8166 38.5222 34.4682 38.0925 35.0274 37.5571L36.3513 36.3865C36.3639 36.3683 36.3805 36.3532 36.3998 36.3424C36.4191 36.3315 36.4407 36.3251 36.4628 36.3238C37.2571 36.3238 40.9501 39.7242 42.922 39.7451H43.9812C45.9392 39.6824 49.5555 36.3099 50.3777 36.3099C50.418 36.3063 50.4581 36.3189 50.4892 36.3447L51.8271 37.5711C52.3863 38.1065 53.0378 38.5361 53.7502 38.8392C53.7502 38.8392 55.1438 39.3688 55.8963 39.6824C61.0526 41.8215 66.8917 44.2115 64.4111 54.1757C63.1081 58.8302 48.0853 59.75 44.1345 59.75H42.6155C38.6646 59.75 23.6418 58.8024 22.3388 54.1757C19.8512 44.2115 25.7043 41.8215 30.8606 39.7102ZM43.6328 45.1383H43.4237H43.2217L41.2149 53.1932C41.2037 53.2544 41.211 53.3176 41.2358 53.3747C41.2606 53.4317 41.3018 53.4801 41.3543 53.5137L43.0126 54.8097C43.1227 54.8907 43.2558 54.9343 43.3924 54.9343C43.529 54.9343 43.6621 54.8907 43.7721 54.8097L45.4723 53.4161C45.5235 53.3817 45.5633 53.3329 45.5868 53.2759C45.6104 53.2188 45.6166 53.1562 45.6047 53.0956L43.6328 45.1383ZM43.4586 41.5149H42.936C42.6231 41.5056 42.3122 41.4612 42.0092 41.3825L42.706 42.7761C42.757 42.94 42.8471 43.0891 42.9685 43.2105C43.0898 43.3319 43.2389 43.4219 43.4028 43.4729C43.5662 43.4209 43.7147 43.3305 43.8359 43.2092C43.9572 43.088 44.0476 42.9395 44.0996 42.7761L44.7964 41.4522C44.5677 41.5074 44.3345 41.5424 44.0996 41.5567H43.4725L43.4586 41.5149ZM24.0181 53.7436C24.7148 56.1336 34.7556 58.0568 42.6155 58.0568H44.1345C51.9943 58.0429 62.0072 56.1197 62.7249 53.7436C64.8292 45.2497 60.3558 43.4311 55.2274 41.3198C54.4749 41.0132 53.137 40.4906 53.137 40.4837C52.1965 40.1015 51.3361 39.5461 50.6007 38.8462L50.1339 38.4142L49.3674 38.9368C48.6706 39.4455 47.9738 39.9053 47.277 40.3304L45.6256 43.5635C45.4919 43.813 45.3306 44.0467 45.1448 44.2603L47.2352 52.7124C47.3312 53.091 47.3165 53.4891 47.193 53.8597C47.0695 54.2302 46.8423 54.5575 46.5384 54.8028L44.8382 56.1964C44.4204 56.523 43.9053 56.7004 43.375 56.7004C42.8446 56.7004 42.3295 56.523 41.9117 56.1964L40.2533 54.9003C39.9395 54.6618 39.7014 54.3374 39.5678 53.9665C39.4343 53.5955 39.411 53.1938 39.5008 52.8099L41.5912 44.2951C41.4076 44.0814 41.2487 43.8476 41.1174 43.5983L39.3823 40.2677C38.7622 39.8914 38.1142 39.4594 37.4174 38.9786L36.6648 38.4142L36.198 38.8253C35.4758 39.515 34.6325 40.0654 33.7104 40.4488C33.7104 40.4488 32.2611 41.0063 31.4946 41.3268C26.3662 43.4311 21.9207 45.2497 24.0181 53.7436ZM12.9739 0C20.0045 0 25.6973 5.5186 25.6973 12.3263C25.6949 15.4443 24.4864 18.4406 22.3248 20.6878C22.4015 22.8269 22.7638 25.7047 24.039 27.1889C21.6072 27.1889 19.1196 25.2169 17.6424 23.7955C16.152 24.365 14.5694 24.6556 12.9739 24.6525C5.94324 24.6525 0.250443 19.1339 0.250443 12.3263C0.250443 5.5186 5.93628 0 12.9739 0ZM12.9739 22.9036C14.3577 22.9063 15.7302 22.6535 17.0223 22.158C17.3312 22.0391 17.6677 22.0106 17.9923 22.076C18.3168 22.1414 18.616 22.298 18.8548 22.5273C19.4996 23.1635 20.1991 23.7417 20.9452 24.2554C20.7211 23.0948 20.5906 21.9181 20.555 20.7366C20.5463 20.5038 20.5843 20.2716 20.6669 20.0538C20.7495 19.8359 20.8749 19.6369 21.0358 19.4684C22.8871 17.5457 23.9233 14.9815 23.9275 12.3123C23.9275 6.48018 19.0011 1.72805 12.946 1.72805C6.89088 1.72805 1.96455 6.47321 1.96455 12.3123C1.96455 18.1515 6.91179 22.9106 12.9739 22.9106V22.9036ZM17.9351 10.2847C18.4298 10.2847 18.9134 10.4314 19.3248 10.7062C19.7362 10.9811 20.0568 11.3718 20.2461 11.8289C20.4355 12.286 20.485 12.7889 20.3885 13.2742C20.292 13.7594 20.0537 14.2051 19.7039 14.555C19.354 14.9048 18.9083 15.1431 18.4231 15.2396C17.9378 15.3361 17.4349 15.2866 16.9778 15.0972C16.5207 14.9079 16.13 14.5873 15.8551 14.1759C15.5803 13.7645 15.4336 13.2809 15.4336 12.7862C15.4336 12.1227 15.6971 11.4865 16.1662 11.0173C16.6354 10.5482 17.2716 10.2847 17.9351 10.2847ZM17.9351 13.5457C18.0843 13.5415 18.229 13.4935 18.3512 13.4076C18.4733 13.3217 18.5674 13.2017 18.6217 13.0626C18.676 12.9235 18.688 12.7715 18.6564 12.6256C18.6248 12.4797 18.5509 12.3463 18.4439 12.2421C18.3369 12.138 18.2015 12.0677 18.0548 12.0401C17.9081 12.0124 17.7564 12.0286 17.6189 12.0867C17.4813 12.1447 17.3639 12.242 17.2813 12.3664C17.1988 12.4909 17.1547 12.6368 17.1546 12.7862C17.1546 12.8877 17.1749 12.9882 17.2144 13.0817C17.2539 13.1753 17.3117 13.2599 17.3844 13.3307C17.4572 13.4015 17.5434 13.457 17.638 13.494C17.7326 13.5309 17.8336 13.5484 17.9351 13.5457ZM12.9321 10.2847C13.4268 10.2847 13.9105 10.4314 14.3218 10.7062C14.7332 10.9811 15.0538 11.3718 15.2431 11.8289C15.4325 12.286 15.482 12.7889 15.3855 13.2742C15.289 13.7594 15.0507 14.2051 14.7009 14.555C14.3511 14.9048 13.9053 15.1431 13.4201 15.2396C12.9348 15.3361 12.4319 15.2866 11.9748 15.0972C11.5177 14.9079 11.127 14.5873 10.8522 14.1759C10.5773 13.7645 10.4306 13.2809 10.4306 12.7862C10.4306 12.1227 10.6941 11.4865 11.1633 11.0173C11.6324 10.5482 12.2686 10.2847 12.9321 10.2847ZM12.9321 13.5457C13.0823 13.5457 13.2291 13.5011 13.354 13.4177C13.4789 13.3342 13.5763 13.2156 13.6338 13.0768C13.6913 12.938 13.7063 12.7853 13.677 12.638C13.6477 12.4907 13.5753 12.3553 13.4691 12.2491C13.3629 12.1429 13.2276 12.0705 13.0802 12.0412C12.9329 12.0119 12.7802 12.027 12.6414 12.0845C12.5026 12.1419 12.384 12.2393 12.3006 12.3642C12.2171 12.4891 12.1726 12.6359 12.1726 12.7862C12.1726 12.9876 12.2526 13.1808 12.395 13.3232C12.5375 13.4656 12.7306 13.5457 12.9321 13.5457ZM7.92213 10.2847C8.41688 10.2847 8.90052 10.4314 9.31189 10.7062C9.72326 10.9811 10.0439 11.3718 10.2332 11.8289C10.4225 12.286 10.4721 12.7889 10.3756 13.2742C10.279 13.7594 10.0408 14.2051 9.69095 14.555C9.34111 14.9048 8.89539 15.1431 8.41015 15.2396C7.92491 15.3361 7.42194 15.2866 6.96486 15.0972C6.50777 14.9079 6.11709 14.5873 5.84222 14.1759C5.56736 13.7645 5.42065 13.2809 5.42065 12.7862C5.42065 12.1227 5.6842 11.4865 6.15332 11.0173C6.62244 10.5482 7.2587 10.2847 7.92213 10.2847ZM7.92213 13.5457C8.07235 13.5457 8.21919 13.5011 8.34409 13.4177C8.46899 13.3342 8.56634 13.2156 8.62383 13.0768C8.68131 12.938 8.69635 12.7853 8.66705 12.638C8.63774 12.4907 8.5654 12.3553 8.45918 12.2491C8.35297 12.1429 8.21764 12.0705 8.0703 12.0412C7.92298 12.0119 7.77027 12.027 7.63149 12.0845C7.49271 12.1419 7.37408 12.2393 7.29063 12.3642C7.20717 12.4891 7.16263 12.6359 7.16263 12.7862C7.16263 12.9876 7.24265 13.1808 7.38509 13.3232C7.52752 13.4656 7.7207 13.5457 7.92213 13.5457Z" fill="#00345E"/>
</svg>
