<svg width="17" height="17" viewBox="0 0 17 17" fill="none" xmlns="http://www.w3.org/2000/svg">
<circle cx="8.12439" cy="8.12439" r="7.62439" stroke="#A58A57"/>
<path d="M7.51254 11.8696V6.67498H8.7292V11.8696H7.51254ZM8.12616 5.76513C7.90751 5.76513 7.72766 5.70165 7.58659 5.5747C7.44553 5.44774 7.375 5.28199 7.375 5.07745C7.375 4.87291 7.44553 4.70717 7.58659 4.58021C7.72766 4.4462 7.90751 4.3792 8.12616 4.3792C8.3448 4.3792 8.52466 4.4462 8.66572 4.58021C8.80678 4.70717 8.87731 4.87291 8.87731 5.07745C8.87731 5.28199 8.80678 5.44774 8.66572 5.5747C8.52466 5.70165 8.3448 5.76513 8.12616 5.76513Z" fill="#A58A57"/>
</svg>
