<svg width="37" height="37" viewBox="0 0 37 37" fill="none" xmlns="http://www.w3.org/2000/svg">
<circle cx="18.5" cy="18.5" r="17.5" stroke="#A58A57" stroke-width="2"/>
<path d="M14.19 28V23.02H12V21.73L14.19 21.58V19.75H12V18.43L14.19 18.31V8.85999H17.79C18.73 8.85999 19.6 8.95999 20.4 9.15999C21.22 9.35998 21.92 9.67998 22.5 10.12C23.1 10.54 23.56 11.09 23.88 11.77C24.22 12.45 24.39 13.26 24.39 14.2C24.39 15.16 24.22 15.99 23.88 16.69C23.54 17.39 23.07 17.97 22.47 18.43C21.89 18.87 21.19 19.2 20.37 19.42C19.57 19.64 18.71 19.75 17.79 19.75H16.56V21.58H22.62V23.02H16.56V28H14.19ZM16.56 18.31H17.52C18.96 18.31 20.07 17.98 20.85 17.32C21.65 16.64 22.05 15.64 22.05 14.32C22.05 12.94 21.65 11.97 20.85 11.41C20.07 10.85 18.96 10.57 17.52 10.57H16.56V18.31Z" fill="#A58A57"/>
<path d="M6 6.5L32.6459 29.2366" stroke="#A58A57" stroke-width="2"/>
</svg>
